<svg width="1440" height="238" viewBox="0 0 1440 238" fill="none" xmlns="http://www.w3.org/2000/svg">
<path fill-rule="evenodd" clip-rule="evenodd" d="M-34 33.587L50.8247 26.8696C135.649 20.1522 297.588 13.4348 467.237 20.1522C629.175 33.587 798.825 73.8913 960.763 73.8913C1130.41 73.8913 1292.35 33.587 1377.18 20.1522L1462 0V309H1377.18C1292.35 309 1130.41 309 960.763 309C798.825 309 629.175 309 467.237 309C297.588 309 135.649 309 50.8247 309H-34V33.587Z" fill="url(#paint0_linear_175_1007)"/>
<path d="M352.4 168.48V166.9H360.7V168.48H352.4ZM355.64 181V166.9H357.46V181H355.64ZM360.878 176.5V175.2H367.698V176.5H360.878ZM363.978 181.32V179.74H364.078V181.32H363.978ZM360.298 177.42V174.48H362.118V177.42H360.298ZM365.878 175.2V174.16H367.698V175.2H365.878ZM367.698 174.16H365.878C365.878 173.573 365.698 173.093 365.338 172.72C364.991 172.347 364.538 172.16 363.978 172.16V170.6C364.698 170.6 365.331 170.753 365.878 171.06C366.438 171.367 366.878 171.793 367.198 172.34C367.531 172.873 367.698 173.48 367.698 174.16ZM365.958 178L367.658 178.34C367.578 178.913 367.371 179.427 367.038 179.88C366.704 180.333 366.284 180.687 365.778 180.94C365.271 181.193 364.704 181.32 364.078 181.32V179.74C364.558 179.74 364.971 179.6 365.318 179.32C365.678 179.027 365.891 178.587 365.958 178ZM360.298 174.5C360.298 173.74 360.458 173.073 360.778 172.5C361.111 171.913 361.551 171.453 362.098 171.12C362.658 170.773 363.291 170.6 363.998 170.6V172.16C363.411 172.16 362.951 172.367 362.618 172.78C362.284 173.18 362.118 173.753 362.118 174.5H360.298ZM360.298 177.42H362.118C362.118 178.153 362.284 178.727 362.618 179.14C362.951 179.54 363.411 179.74 363.998 179.74V181.32C363.291 181.32 362.658 181.153 362.098 180.82C361.551 180.473 361.111 180.007 360.778 179.42C360.458 178.833 360.298 178.167 360.298 177.42ZM369.548 181V170.9H371.368V181H369.548ZM370.548 174.34C370.548 173.647 370.668 173.02 370.908 172.46C371.161 171.9 371.501 171.467 371.928 171.16C372.354 170.84 372.834 170.68 373.368 170.68L372.968 172.38C372.501 172.38 372.114 172.567 371.808 172.94C371.514 173.3 371.368 173.767 371.368 174.34H370.548ZM374.248 172.92C374.048 172.747 373.834 172.613 373.608 172.52C373.394 172.427 373.181 172.38 372.968 172.38L373.368 170.68C373.674 170.68 373.961 170.733 374.228 170.84C374.494 170.933 374.761 171.107 375.028 171.36L374.248 172.92ZM376.657 181V170.9H378.477V181H376.657ZM381.877 181V174.12H383.697V181H381.877ZM377.657 174.16C377.657 173.48 377.784 172.873 378.037 172.34C378.304 171.793 378.664 171.367 379.117 171.06C379.57 170.753 380.077 170.6 380.637 170.6L380.177 172.22C379.697 172.22 379.29 172.4 378.957 172.76C378.637 173.12 378.477 173.587 378.477 174.16H377.657ZM381.877 174.12C381.877 173.56 381.717 173.107 381.397 172.76C381.077 172.4 380.67 172.22 380.177 172.22L380.637 170.6C381.224 170.6 381.744 170.753 382.197 171.06C382.664 171.367 383.03 171.787 383.297 172.32C383.564 172.84 383.697 173.44 383.697 174.12H381.877ZM387.077 181V174.12H388.897V181H387.077ZM382.877 174.16C382.877 173.48 383.004 172.873 383.257 172.34C383.524 171.793 383.877 171.367 384.317 171.06C384.77 170.753 385.277 170.6 385.837 170.6L385.377 172.22C384.897 172.22 384.497 172.4 384.177 172.76C383.857 173.12 383.697 173.587 383.697 174.16H382.877ZM387.077 174.12C387.077 173.56 386.917 173.107 386.597 172.76C386.29 172.4 385.884 172.22 385.377 172.22L385.837 170.6C386.424 170.6 386.944 170.753 387.397 171.06C387.864 171.367 388.23 171.787 388.497 172.32C388.764 172.84 388.897 173.44 388.897 174.12H387.077ZM395.851 178.4C395.851 178.067 395.731 177.793 395.491 177.58C395.251 177.353 394.938 177.153 394.551 176.98C394.178 176.793 393.778 176.607 393.351 176.42C392.938 176.233 392.538 176.02 392.151 175.78C391.778 175.527 391.471 175.213 391.231 174.84C390.991 174.453 390.871 173.987 390.871 173.44C390.871 173.44 390.924 173.44 391.031 173.44C391.151 173.44 391.298 173.44 391.471 173.44C391.658 173.44 391.838 173.44 392.011 173.44C392.184 173.44 392.331 173.44 392.451 173.44C392.571 173.44 392.631 173.44 392.631 173.44C392.631 173.773 392.751 174.053 392.991 174.28C393.231 174.493 393.538 174.687 393.911 174.86C394.298 175.033 394.704 175.22 395.131 175.42C395.558 175.607 395.958 175.827 396.331 176.08C396.704 176.333 397.011 176.647 397.251 177.02C397.504 177.38 397.631 177.84 397.631 178.4C397.631 178.4 397.571 178.4 397.451 178.4C397.331 178.4 397.178 178.4 396.991 178.4C396.818 178.4 396.644 178.4 396.471 178.4C396.298 178.4 396.151 178.4 396.031 178.4C395.911 178.4 395.851 178.4 395.851 178.4ZM394.151 181.3V179.72C394.644 179.72 395.051 179.6 395.371 179.36C395.691 179.107 395.851 178.787 395.851 178.4H397.631C397.631 178.96 397.478 179.46 397.171 179.9C396.878 180.34 396.471 180.687 395.951 180.94C395.431 181.18 394.831 181.3 394.151 181.3ZM390.871 173.44C390.871 172.893 391.004 172.407 391.271 171.98C391.551 171.54 391.938 171.2 392.431 170.96C392.924 170.707 393.471 170.58 394.071 170.58V172.16C393.658 172.16 393.311 172.28 393.031 172.52C392.764 172.76 392.631 173.067 392.631 173.44H390.871ZM392.251 177.98C392.318 178.567 392.531 179.007 392.891 179.3C393.251 179.58 393.671 179.72 394.151 179.72V181.3C393.538 181.3 392.971 181.173 392.451 180.92C391.931 180.667 391.504 180.313 391.171 179.86C390.851 179.407 390.651 178.893 390.571 178.32L392.251 177.98ZM395.951 173.9C395.884 173.3 395.671 172.86 395.311 172.58C394.964 172.3 394.551 172.16 394.071 172.16V170.58C394.698 170.58 395.264 170.707 395.771 170.96C396.278 171.213 396.698 171.567 397.031 172.02C397.364 172.46 397.571 172.973 397.651 173.56L395.951 173.9ZM412.957 181L406.177 173.32L407.317 172.14L414.157 179.88L412.957 181ZM407.117 181.32C405.917 181.32 404.984 181 404.317 180.36C403.651 179.72 403.317 178.86 403.317 177.78L405.117 177.84C405.117 178.467 405.297 178.94 405.657 179.26C406.017 179.58 406.504 179.74 407.117 179.74V181.32ZM407.117 181.32V179.74C407.357 179.74 407.611 179.693 407.877 179.6C408.144 179.507 408.424 179.353 408.717 179.14C409.024 178.927 409.351 178.64 409.697 178.28L410.717 179.52C410.291 179.96 409.871 180.313 409.457 180.58C409.057 180.833 408.664 181.02 408.277 181.14C407.904 181.26 407.517 181.32 407.117 181.32ZM403.317 177.78C403.304 177.327 403.397 176.873 403.597 176.42C403.797 175.953 404.057 175.513 404.377 175.1C404.697 174.673 405.037 174.28 405.397 173.92C405.771 173.547 406.124 173.213 406.457 172.92C406.804 172.613 407.091 172.353 407.317 172.14L408.477 173.46C408.291 173.673 408.011 173.94 407.637 174.26C407.277 174.58 406.904 174.933 406.517 175.32C406.131 175.707 405.797 176.113 405.517 176.54C405.251 176.967 405.117 177.4 405.117 177.84L403.317 177.78ZM410.717 179.52L409.697 178.28L412.477 175.26L413.597 176.32L410.717 179.52ZM406.177 173.32C405.871 172.973 405.564 172.613 405.257 172.24C404.951 171.867 404.691 171.473 404.477 171.06C404.277 170.633 404.177 170.187 404.177 169.72L405.937 169.7C405.937 169.993 406.011 170.287 406.157 170.58C406.304 170.86 406.484 171.133 406.697 171.4C406.924 171.667 407.131 171.913 407.317 172.14L406.177 173.32ZM404.177 169.72C404.164 169.133 404.291 168.607 404.557 168.14C404.837 167.66 405.231 167.287 405.737 167.02C406.244 166.74 406.811 166.6 407.437 166.6V168.18C407.011 168.18 406.651 168.327 406.357 168.62C406.064 168.9 405.924 169.26 405.937 169.7L404.177 169.72ZM409.317 169.92C409.251 169.32 409.037 168.88 408.677 168.6C408.331 168.32 407.911 168.18 407.417 168.18V166.6C408.044 166.6 408.611 166.727 409.117 166.98C409.637 167.233 410.057 167.587 410.377 168.04C410.711 168.48 410.917 168.993 410.997 169.58L409.317 169.92ZM420.129 177.58V170.32H421.949V177.58H420.129ZM420.129 170.32C420.129 169.587 420.296 168.94 420.629 168.38C420.962 167.807 421.429 167.367 422.029 167.06C422.629 166.74 423.316 166.58 424.089 166.58V168.16C423.422 168.16 422.896 168.347 422.509 168.72C422.136 169.093 421.949 169.627 421.949 170.32H420.129ZM420.129 177.56H421.949C421.949 178.253 422.136 178.793 422.509 179.18C422.896 179.553 423.422 179.74 424.089 179.74V181.32C423.316 181.32 422.629 181.16 422.029 180.84C421.429 180.52 420.962 180.08 420.629 179.52C420.296 178.96 420.129 178.307 420.129 177.56ZM426.469 170.84C426.389 170 426.136 169.347 425.709 168.88C425.296 168.4 424.749 168.16 424.069 168.16V166.58C425.202 166.58 426.122 166.927 426.829 167.62C427.549 168.313 427.982 169.273 428.129 170.5L426.469 170.84ZM426.469 177.06L428.129 177.38C427.982 178.62 427.549 179.587 426.829 180.28C426.122 180.973 425.202 181.32 424.069 181.32V179.74C424.749 179.74 425.296 179.507 425.709 179.04C426.136 178.56 426.389 177.9 426.469 177.06ZM435 177.42V174.48H436.82V177.42H435ZM429.38 177.42V174.48H431.2V177.42H429.38ZM433.04 172.18V170.6H433.16V172.18H433.04ZM433.04 181.3V179.72H433.16V181.3H433.04ZM429.38 174.5C429.38 173.753 429.54 173.087 429.86 172.5C430.193 171.913 430.633 171.453 431.18 171.12C431.74 170.773 432.373 170.6 433.08 170.6V172.18C432.493 172.18 432.033 172.38 431.7 172.78C431.366 173.18 431.2 173.753 431.2 174.5H429.38ZM436.82 174.5H435C435 173.753 434.833 173.18 434.5 172.78C434.18 172.38 433.72 172.18 433.12 172.18V170.6C433.826 170.6 434.453 170.773 435 171.12C435.56 171.453 436 171.913 436.32 172.5C436.653 173.087 436.82 173.753 436.82 174.5ZM429.38 177.4H431.2C431.2 178.133 431.366 178.707 431.7 179.12C432.033 179.52 432.493 179.72 433.08 179.72V181.3C432.373 181.3 431.74 181.133 431.18 180.8C430.633 180.453 430.193 179.987 429.86 179.4C429.54 178.813 429.38 178.147 429.38 177.4ZM436.82 177.4C436.82 178.147 436.653 178.813 436.32 179.4C436 179.987 435.56 180.453 435 180.8C434.453 181.133 433.826 181.3 433.12 181.3V179.72C433.72 179.72 434.18 179.52 434.5 179.12C434.833 178.707 435 178.133 435 177.4H436.82ZM438.669 181V170.9H440.489V181H438.669ZM444.289 181V174.12H446.109V181H444.289ZM444.289 174.12C444.289 173.56 444.115 173.107 443.769 172.76C443.422 172.4 442.975 172.22 442.429 172.22L442.889 170.6C443.502 170.6 444.049 170.753 444.529 171.06C445.022 171.367 445.409 171.787 445.689 172.32C445.969 172.853 446.109 173.453 446.109 174.12H444.289ZM439.689 174.16C439.689 173.48 439.829 172.873 440.109 172.34C440.389 171.793 440.769 171.367 441.249 171.06C441.729 170.753 442.275 170.6 442.889 170.6L442.429 172.22C441.855 172.22 441.389 172.4 441.029 172.76C440.669 173.12 440.489 173.587 440.489 174.16H439.689ZM455.418 170.92H453.598V166.9H455.418V170.92ZM453.598 181V170.9H455.418V181H453.598ZM447.978 177.78V174.12H449.798V177.78H447.978ZM449.798 174.12H447.978C447.978 173.453 448.118 172.853 448.398 172.32C448.678 171.787 449.058 171.367 449.538 171.06C450.031 170.753 450.591 170.6 451.218 170.6L451.678 172.22C451.131 172.22 450.678 172.4 450.318 172.76C449.971 173.107 449.798 173.56 449.798 174.12ZM454.398 174.16H453.598C453.598 173.587 453.418 173.12 453.058 172.76C452.698 172.4 452.238 172.22 451.678 172.22L451.218 170.6C451.818 170.6 452.358 170.753 452.838 171.06C453.331 171.367 453.711 171.793 453.978 172.34C454.258 172.873 454.398 173.48 454.398 174.16ZM449.798 177.78C449.798 178.34 449.971 178.8 450.318 179.16C450.678 179.507 451.131 179.68 451.678 179.68L451.218 181.3C450.591 181.3 450.031 181.147 449.538 180.84C449.058 180.533 448.678 180.113 448.398 179.58C448.118 179.047 447.978 178.447 447.978 177.78H449.798ZM454.398 177.72C454.398 178.4 454.258 179.013 453.978 179.56C453.711 180.093 453.331 180.52 452.838 180.84C452.358 181.147 451.818 181.3 451.218 181.3L451.678 179.68C452.238 179.68 452.698 179.5 453.058 179.14C453.418 178.78 453.598 178.307 453.598 177.72H454.398ZM458.009 181V170.9H459.829V181H458.009ZM458.909 169.56C458.576 169.56 458.296 169.447 458.069 169.22C457.843 168.993 457.729 168.713 457.729 168.38C457.729 168.047 457.843 167.767 458.069 167.54C458.296 167.3 458.576 167.18 458.909 167.18C459.243 167.18 459.523 167.3 459.749 167.54C459.989 167.767 460.109 168.047 460.109 168.38C460.109 168.713 459.989 168.993 459.749 169.22C459.523 169.447 459.243 169.56 458.909 169.56ZM463.098 177.94V166.88L464.918 166.9V177.94H463.098ZM461.938 172.4V170.9H467.438V172.4H461.938ZM463.098 177.92H464.918C464.918 178.307 464.972 178.633 465.078 178.9C465.185 179.167 465.338 179.373 465.538 179.52C465.738 179.653 465.978 179.72 466.258 179.72L466.098 181.3C465.165 181.3 464.432 181.007 463.898 180.42C463.365 179.82 463.098 178.987 463.098 177.92ZM467.198 179.38L467.918 180.68C467.652 180.88 467.358 181.033 467.038 181.14C466.732 181.247 466.418 181.3 466.098 181.3L466.258 179.72C466.432 179.72 466.592 179.693 466.738 179.64C466.898 179.573 467.052 179.487 467.198 179.38ZM469.611 181V170.9H471.431V181H469.611ZM470.511 169.56C470.178 169.56 469.898 169.447 469.671 169.22C469.444 168.993 469.331 168.713 469.331 168.38C469.331 168.047 469.444 167.767 469.671 167.54C469.898 167.3 470.178 167.18 470.511 167.18C470.844 167.18 471.124 167.3 471.351 167.54C471.591 167.767 471.711 168.047 471.711 168.38C471.711 168.713 471.591 168.993 471.351 169.22C471.124 169.447 470.844 169.56 470.511 169.56ZM479.101 177.42V174.48H480.921V177.42H479.101ZM473.481 177.42V174.48H475.301V177.42H473.481ZM477.141 172.18V170.6H477.261V172.18H477.141ZM477.141 181.3V179.72H477.261V181.3H477.141ZM473.481 174.5C473.481 173.753 473.641 173.087 473.961 172.5C474.295 171.913 474.735 171.453 475.281 171.12C475.841 170.773 476.475 170.6 477.181 170.6V172.18C476.595 172.18 476.135 172.38 475.801 172.78C475.468 173.18 475.301 173.753 475.301 174.5H473.481ZM480.921 174.5H479.101C479.101 173.753 478.935 173.18 478.601 172.78C478.281 172.38 477.821 172.18 477.221 172.18V170.6C477.928 170.6 478.555 170.773 479.101 171.12C479.661 171.453 480.101 171.913 480.421 172.5C480.755 173.087 480.921 173.753 480.921 174.5ZM473.481 177.4H475.301C475.301 178.133 475.468 178.707 475.801 179.12C476.135 179.52 476.595 179.72 477.181 179.72V181.3C476.475 181.3 475.841 181.133 475.281 180.8C474.735 180.453 474.295 179.987 473.961 179.4C473.641 178.813 473.481 178.147 473.481 177.4ZM480.921 177.4C480.921 178.147 480.755 178.813 480.421 179.4C480.101 179.987 479.661 180.453 479.101 180.8C478.555 181.133 477.928 181.3 477.221 181.3V179.72C477.821 179.72 478.281 179.52 478.601 179.12C478.935 178.707 479.101 178.133 479.101 177.4H480.921ZM482.77 181V170.9H484.59V181H482.77ZM488.39 181V174.12H490.21V181H488.39ZM488.39 174.12C488.39 173.56 488.217 173.107 487.87 172.76C487.524 172.4 487.077 172.22 486.53 172.22L486.99 170.6C487.604 170.6 488.15 170.753 488.63 171.06C489.124 171.367 489.51 171.787 489.79 172.32C490.07 172.853 490.21 173.453 490.21 174.12H488.39ZM483.79 174.16C483.79 173.48 483.93 172.873 484.21 172.34C484.49 171.793 484.87 171.367 485.35 171.06C485.83 170.753 486.377 170.6 486.99 170.6L486.53 172.22C485.957 172.22 485.49 172.4 485.13 172.76C484.77 173.12 484.59 173.587 484.59 174.16H483.79ZM497.16 178.4C497.16 178.067 497.04 177.793 496.8 177.58C496.56 177.353 496.246 177.153 495.86 176.98C495.486 176.793 495.086 176.607 494.66 176.42C494.246 176.233 493.846 176.02 493.46 175.78C493.086 175.527 492.78 175.213 492.54 174.84C492.3 174.453 492.18 173.987 492.18 173.44C492.18 173.44 492.233 173.44 492.34 173.44C492.46 173.44 492.606 173.44 492.78 173.44C492.966 173.44 493.146 173.44 493.32 173.44C493.493 173.44 493.64 173.44 493.76 173.44C493.88 173.44 493.94 173.44 493.94 173.44C493.94 173.773 494.06 174.053 494.3 174.28C494.54 174.493 494.846 174.687 495.22 174.86C495.606 175.033 496.013 175.22 496.44 175.42C496.866 175.607 497.266 175.827 497.64 176.08C498.013 176.333 498.32 176.647 498.56 177.02C498.813 177.38 498.94 177.84 498.94 178.4C498.94 178.4 498.88 178.4 498.76 178.4C498.64 178.4 498.486 178.4 498.3 178.4C498.126 178.4 497.953 178.4 497.78 178.4C497.606 178.4 497.46 178.4 497.34 178.4C497.22 178.4 497.16 178.4 497.16 178.4ZM495.46 181.3V179.72C495.953 179.72 496.36 179.6 496.68 179.36C497 179.107 497.16 178.787 497.16 178.4H498.94C498.94 178.96 498.786 179.46 498.48 179.9C498.186 180.34 497.78 180.687 497.26 180.94C496.74 181.18 496.14 181.3 495.46 181.3ZM492.18 173.44C492.18 172.893 492.313 172.407 492.58 171.98C492.86 171.54 493.246 171.2 493.74 170.96C494.233 170.707 494.78 170.58 495.38 170.58V172.16C494.966 172.16 494.62 172.28 494.34 172.52C494.073 172.76 493.94 173.067 493.94 173.44H492.18ZM493.56 177.98C493.626 178.567 493.84 179.007 494.2 179.3C494.56 179.58 494.98 179.72 495.46 179.72V181.3C494.846 181.3 494.28 181.173 493.76 180.92C493.24 180.667 492.813 180.313 492.48 179.86C492.16 179.407 491.96 178.893 491.88 178.32L493.56 177.98ZM497.26 173.9C497.193 173.3 496.98 172.86 496.62 172.58C496.273 172.3 495.86 172.16 495.38 172.16V170.58C496.006 170.58 496.573 170.707 497.08 170.96C497.586 171.213 498.006 171.567 498.34 172.02C498.673 172.46 498.88 172.973 498.96 173.56L497.26 173.9Z" fill="white"/>
<path d="M353 207.58V200.32H354.82V207.58H353ZM353 200.32C353 199.587 353.167 198.94 353.5 198.38C353.833 197.807 354.3 197.367 354.9 197.06C355.5 196.74 356.187 196.58 356.96 196.58V198.16C356.293 198.16 355.767 198.347 355.38 198.72C355.007 199.093 354.82 199.627 354.82 200.32H353ZM353 207.56H354.82C354.82 208.253 355.007 208.793 355.38 209.18C355.767 209.553 356.293 209.74 356.96 209.74V211.32C356.187 211.32 355.5 211.16 354.9 210.84C354.3 210.52 353.833 210.08 353.5 209.52C353.167 208.96 353 208.307 353 207.56ZM359.34 200.84C359.26 200 359.007 199.347 358.58 198.88C358.167 198.4 357.62 198.16 356.94 198.16V196.58C358.073 196.58 358.993 196.927 359.7 197.62C360.42 198.313 360.853 199.273 361 200.5L359.34 200.84ZM359.34 207.06L361 207.38C360.853 208.62 360.42 209.587 359.7 210.28C358.993 210.973 358.073 211.32 356.94 211.32V209.74C357.62 209.74 358.167 209.507 358.58 209.04C359.007 208.56 359.26 207.9 359.34 207.06ZM367.871 207.42V204.48H369.691V207.42H367.871ZM362.251 207.42V204.48H364.071V207.42H362.251ZM365.911 202.18V200.6H366.031V202.18H365.911ZM365.911 211.3V209.72H366.031V211.3H365.911ZM362.251 204.5C362.251 203.753 362.411 203.087 362.731 202.5C363.064 201.913 363.504 201.453 364.051 201.12C364.611 200.773 365.244 200.6 365.951 200.6V202.18C365.364 202.18 364.904 202.38 364.571 202.78C364.237 203.18 364.071 203.753 364.071 204.5H362.251ZM369.691 204.5H367.871C367.871 203.753 367.704 203.18 367.371 202.78C367.051 202.38 366.591 202.18 365.991 202.18V200.6C366.697 200.6 367.324 200.773 367.871 201.12C368.431 201.453 368.871 201.913 369.191 202.5C369.524 203.087 369.691 203.753 369.691 204.5ZM362.251 207.4H364.071C364.071 208.133 364.237 208.707 364.571 209.12C364.904 209.52 365.364 209.72 365.951 209.72V211.3C365.244 211.3 364.611 211.133 364.051 210.8C363.504 210.453 363.064 209.987 362.731 209.4C362.411 208.813 362.251 208.147 362.251 207.4ZM369.691 207.4C369.691 208.147 369.524 208.813 369.191 209.4C368.871 209.987 368.431 210.453 367.871 210.8C367.324 211.133 366.697 211.3 365.991 211.3V209.72C366.591 209.72 367.051 209.52 367.371 209.12C367.704 208.707 367.871 208.133 367.871 207.4H369.691ZM376.797 207.42V204.48H378.617V207.42H376.797ZM371.177 207.42V204.48H372.997V207.42H371.177ZM374.837 202.18V200.6H374.957V202.18H374.837ZM374.837 211.3V209.72H374.957V211.3H374.837ZM371.177 204.5C371.177 203.753 371.337 203.087 371.657 202.5C371.99 201.913 372.43 201.453 372.977 201.12C373.537 200.773 374.17 200.6 374.877 200.6V202.18C374.29 202.18 373.83 202.38 373.497 202.78C373.163 203.18 372.997 203.753 372.997 204.5H371.177ZM378.617 204.5H376.797C376.797 203.753 376.63 203.18 376.297 202.78C375.977 202.38 375.517 202.18 374.917 202.18V200.6C375.623 200.6 376.25 200.773 376.797 201.12C377.357 201.453 377.797 201.913 378.117 202.5C378.45 203.087 378.617 203.753 378.617 204.5ZM371.177 207.4H372.997C372.997 208.133 373.163 208.707 373.497 209.12C373.83 209.52 374.29 209.72 374.877 209.72V211.3C374.17 211.3 373.537 211.133 372.977 210.8C372.43 210.453 371.99 209.987 371.657 209.4C371.337 208.813 371.177 208.147 371.177 207.4ZM378.617 207.4C378.617 208.147 378.45 208.813 378.117 209.4C377.797 209.987 377.357 210.453 376.797 210.8C376.25 211.133 375.623 211.3 374.917 211.3V209.72C375.517 209.72 375.977 209.52 376.297 209.12C376.63 208.707 376.797 208.133 376.797 207.4H378.617ZM385.546 211L381.966 205.42L383.706 204.84L387.446 211H385.546ZM382.026 207.4L380.626 206.46L385.006 200.9H387.206L382.026 207.4ZM380.466 211V196.6H382.286V211H380.466ZM389.279 211V200.9H391.099V211H389.279ZM390.179 199.56C389.846 199.56 389.566 199.447 389.339 199.22C389.112 198.993 388.999 198.713 388.999 198.38C388.999 198.047 389.112 197.767 389.339 197.54C389.566 197.3 389.846 197.18 390.179 197.18C390.512 197.18 390.792 197.3 391.019 197.54C391.259 197.767 391.379 198.047 391.379 198.38C391.379 198.713 391.259 198.993 391.019 199.22C390.792 199.447 390.512 199.56 390.179 199.56ZM393.729 206.5V205.2H400.549V206.5H393.729ZM396.829 211.32V209.74H396.929V211.32H396.829ZM393.149 207.42V204.48H394.969V207.42H393.149ZM398.729 205.2V204.16H400.549V205.2H398.729ZM400.549 204.16H398.729C398.729 203.573 398.549 203.093 398.189 202.72C397.843 202.347 397.389 202.16 396.829 202.16V200.6C397.549 200.6 398.183 200.753 398.729 201.06C399.289 201.367 399.729 201.793 400.049 202.34C400.383 202.873 400.549 203.48 400.549 204.16ZM398.809 208L400.509 208.34C400.429 208.913 400.223 209.427 399.889 209.88C399.556 210.333 399.136 210.687 398.629 210.94C398.123 211.193 397.556 211.32 396.929 211.32V209.74C397.409 209.74 397.823 209.6 398.169 209.32C398.529 209.027 398.743 208.587 398.809 208ZM393.149 204.5C393.149 203.74 393.309 203.073 393.629 202.5C393.963 201.913 394.403 201.453 394.949 201.12C395.509 200.773 396.143 200.6 396.849 200.6V202.16C396.263 202.16 395.803 202.367 395.469 202.78C395.136 203.18 394.969 203.753 394.969 204.5H393.149ZM393.149 207.42H394.969C394.969 208.153 395.136 208.727 395.469 209.14C395.803 209.54 396.263 209.74 396.849 209.74V211.32C396.143 211.32 395.509 211.153 394.949 210.82C394.403 210.473 393.963 210.007 393.629 209.42C393.309 208.833 393.149 208.167 393.149 207.42ZM406.227 210.98H408.047V215H406.227V210.98ZM408.047 200.9V211H406.227V200.9H408.047ZM413.667 204.12V207.78H411.847V204.12H413.667ZM411.847 207.78H413.667C413.667 208.447 413.527 209.047 413.247 209.58C412.967 210.113 412.581 210.533 412.087 210.84C411.607 211.147 411.061 211.3 410.447 211.3L409.987 209.68C410.534 209.68 410.981 209.507 411.327 209.16C411.674 208.8 411.847 208.34 411.847 207.78ZM407.247 207.72H408.047C408.047 208.307 408.227 208.78 408.587 209.14C408.947 209.5 409.414 209.68 409.987 209.68L410.447 211.3C409.834 211.3 409.287 211.147 408.807 210.84C408.327 210.52 407.947 210.093 407.667 209.56C407.387 209.013 407.247 208.4 407.247 207.72ZM411.847 204.12C411.847 203.56 411.674 203.107 411.327 202.76C410.981 202.4 410.534 202.22 409.987 202.22L410.447 200.6C411.061 200.6 411.607 200.753 412.087 201.06C412.581 201.367 412.967 201.787 413.247 202.32C413.527 202.853 413.667 203.453 413.667 204.12H411.847ZM407.247 204.16C407.247 203.48 407.387 202.873 407.667 202.34C407.947 201.793 408.327 201.367 408.807 201.06C409.287 200.753 409.834 200.6 410.447 200.6L409.987 202.22C409.414 202.22 408.947 202.4 408.587 202.76C408.227 203.12 408.047 203.587 408.047 204.16H407.247ZM420.957 207.42V204.48H422.777V207.42H420.957ZM415.337 207.42V204.48H417.157V207.42H415.337ZM418.997 202.18V200.6H419.117V202.18H418.997ZM418.997 211.3V209.72H419.117V211.3H418.997ZM415.337 204.5C415.337 203.753 415.497 203.087 415.817 202.5C416.15 201.913 416.59 201.453 417.137 201.12C417.697 200.773 418.33 200.6 419.037 200.6V202.18C418.45 202.18 417.99 202.38 417.657 202.78C417.323 203.18 417.157 203.753 417.157 204.5H415.337ZM422.777 204.5H420.957C420.957 203.753 420.79 203.18 420.457 202.78C420.137 202.38 419.677 202.18 419.077 202.18V200.6C419.783 200.6 420.41 200.773 420.957 201.12C421.517 201.453 421.957 201.913 422.277 202.5C422.61 203.087 422.777 203.753 422.777 204.5ZM415.337 207.4H417.157C417.157 208.133 417.323 208.707 417.657 209.12C417.99 209.52 418.45 209.72 419.037 209.72V211.3C418.33 211.3 417.697 211.133 417.137 210.8C416.59 210.453 416.15 209.987 415.817 209.4C415.497 208.813 415.337 208.147 415.337 207.4ZM422.777 207.4C422.777 208.147 422.61 208.813 422.277 209.4C421.957 209.987 421.517 210.453 420.957 210.8C420.41 211.133 419.783 211.3 419.077 211.3V209.72C419.677 209.72 420.137 209.52 420.457 209.12C420.79 208.707 420.957 208.133 420.957 207.4H422.777ZM424.826 211V196.6H426.646V211H424.826ZM429.455 211V200.9H431.275V211H429.455ZM430.355 199.56C430.021 199.56 429.741 199.447 429.515 199.22C429.288 198.993 429.175 198.713 429.175 198.38C429.175 198.047 429.288 197.767 429.515 197.54C429.741 197.3 430.021 197.18 430.355 197.18C430.688 197.18 430.968 197.3 431.195 197.54C431.435 197.767 431.555 198.047 431.555 198.38C431.555 198.713 431.435 198.993 431.195 199.22C430.968 199.447 430.688 199.56 430.355 199.56ZM433.525 207.44V204.46H435.345V207.44H433.525ZM433.525 204.48C433.525 203.733 433.685 203.067 434.005 202.48C434.338 201.893 434.778 201.433 435.325 201.1C435.885 200.753 436.518 200.58 437.225 200.58V202.16C436.638 202.16 436.178 202.36 435.845 202.76C435.512 203.16 435.345 203.733 435.345 204.48H433.525ZM439.085 203.9C439.018 203.3 438.805 202.86 438.445 202.58C438.098 202.3 437.685 202.16 437.205 202.16V200.58C437.832 200.58 438.398 200.707 438.905 200.96C439.412 201.213 439.832 201.567 440.165 202.02C440.498 202.46 440.705 202.973 440.785 203.56L439.085 203.9ZM433.525 207.42H435.345C435.345 208.153 435.512 208.727 435.845 209.14C436.178 209.54 436.638 209.74 437.225 209.74V211.32C436.518 211.32 435.885 211.153 435.325 210.82C434.778 210.473 434.338 210.007 434.005 209.42C433.685 208.833 433.525 208.167 433.525 207.42ZM439.085 208L440.785 208.34C440.705 208.913 440.498 209.427 440.165 209.88C439.832 210.333 439.412 210.687 438.905 210.94C438.398 211.193 437.832 211.32 437.205 211.32V209.74C437.685 209.74 438.098 209.6 438.445 209.32C438.805 209.027 439.018 208.587 439.085 208ZM442.518 214.7L442.898 213.2C443.418 213.333 443.852 213.3 444.198 213.1C444.545 212.9 444.818 212.487 445.018 211.86H446.698C446.298 213.113 445.745 213.967 445.038 214.42C444.345 214.873 443.505 214.967 442.518 214.7ZM445.018 211.86L448.438 200.9H450.258L446.698 211.86H445.018ZM445.358 211.74L441.838 200.9H443.658L446.258 209.2L445.358 211.74Z" fill="white"/>
<path d="M358.42 117V115.42H363.56V117H358.42ZM357.2 117V102.9H359.02V117H357.2ZM366.189 117V115.42H371.729V117H366.189ZM366.489 110.78V109.16H370.529V110.78H366.489ZM365.169 102.9H366.989V117H365.169V102.9ZM366.389 102.9H371.529V104.48H366.389V102.9ZM377.323 111.08V109.5H381.403V111.08H377.323ZM379.583 113.58V109.56H381.403V113.58H379.583ZM373.523 113.58V106.32H375.343V113.58H373.523ZM373.523 106.32C373.523 105.587 373.69 104.94 374.023 104.38C374.357 103.807 374.823 103.367 375.423 103.06C376.023 102.74 376.71 102.58 377.483 102.58V104.16C376.817 104.16 376.29 104.347 375.903 104.72C375.53 105.093 375.343 105.627 375.343 106.32H373.523ZM373.523 113.56H375.343C375.343 114.253 375.53 114.793 375.903 115.18C376.29 115.553 376.817 115.74 377.483 115.74V117.32C376.71 117.32 376.023 117.16 375.423 116.84C374.823 116.52 374.357 116.08 374.023 115.52C373.69 114.96 373.523 114.307 373.523 113.56ZM379.863 106.84C379.783 106 379.53 105.347 379.103 104.88C378.69 104.4 378.143 104.16 377.463 104.16V102.58C378.597 102.58 379.517 102.927 380.223 103.62C380.943 104.313 381.377 105.273 381.523 106.5L379.863 106.84ZM381.403 113.56C381.403 114.307 381.237 114.96 380.903 115.52C380.57 116.08 380.103 116.52 379.503 116.84C378.917 117.16 378.237 117.32 377.463 117.32V115.74C378.13 115.74 378.65 115.553 379.023 115.18C379.397 114.793 379.583 114.253 379.583 113.56H381.403ZM385.183 114.18V112.62H390.303V114.18H385.183ZM388.403 102.9L384.963 117H383.163L386.603 102.9H388.403ZM388.442 102.9L391.883 117H390.103L386.643 102.9H388.442ZM394.807 117V115.42H399.947V117H394.807ZM393.587 117V102.9H395.407V117H393.587ZM405.525 117V102.9H407.345V117H405.525ZM416.071 117L410.431 102.9H412.211L417.851 117H416.071ZM410.091 117V102.9H411.911V117H410.091ZM416.551 117V102.9H418.371V117H416.551ZM422.231 110.78V109.16H426.271V110.78H422.231ZM420.911 102.9H422.731V117H420.911V102.9ZM422.131 102.9H427.271V104.48H422.131V102.9ZM434.86 113.56V106.32H436.68V113.56H434.86ZM428.78 113.56V106.32H430.6V113.56H428.78ZM436.68 106.34H434.86C434.86 105.647 434.666 105.113 434.28 104.74C433.906 104.367 433.386 104.18 432.72 104.18V102.6C433.506 102.6 434.193 102.76 434.78 103.08C435.38 103.387 435.846 103.827 436.18 104.4C436.513 104.96 436.68 105.607 436.68 106.34ZM428.78 106.34C428.78 105.607 428.946 104.96 429.28 104.4C429.613 103.827 430.08 103.387 430.68 103.08C431.28 102.76 431.966 102.6 432.74 102.6V104.18C432.073 104.18 431.546 104.367 431.16 104.74C430.786 105.113 430.6 105.647 430.6 106.34H428.78ZM436.68 113.54C436.68 114.287 436.513 114.94 436.18 115.5C435.846 116.06 435.38 116.5 434.78 116.82C434.193 117.14 433.506 117.3 432.72 117.3V115.72C433.386 115.72 433.906 115.533 434.28 115.16C434.666 114.773 434.86 114.233 434.86 113.54H436.68ZM428.78 113.54H430.6C430.6 114.233 430.786 114.773 431.16 115.16C431.546 115.533 432.073 115.72 432.74 115.72V117.3C431.966 117.3 431.28 117.14 430.68 116.82C430.08 116.5 429.613 116.06 429.28 115.5C428.946 114.94 428.78 114.287 428.78 113.54Z" fill="#5A2828"/>
<path d="M150.8 106.74V105.18H156.92V106.74H150.8ZM156.32 113V98.9H158.14V113H156.32ZM150.2 113V98.9H152.02V113H150.2ZM161.689 113V111.42H167.229V113H161.689ZM161.989 106.78V105.16H166.029V106.78H161.989ZM160.669 98.9H162.489V113H160.669V98.9ZM161.889 98.9H167.029V100.48H161.889V98.9ZM170.443 113V111.42H175.583V113H170.443ZM169.223 113V98.9H171.043V113H169.223ZM178.372 100.48V98.9H180.412V100.48H178.372ZM178.372 107.58V106H180.412V107.58H178.372ZM182.532 103.84V102.64H184.352V103.84H182.532ZM184.352 102.64H182.532C182.532 101.947 182.339 101.413 181.952 101.04C181.579 100.667 181.059 100.48 180.392 100.48V98.9C181.179 98.9 181.866 99.06 182.452 99.38C183.052 99.6867 183.519 100.127 183.852 100.7C184.186 101.26 184.352 101.907 184.352 102.64ZM184.352 103.82C184.352 104.567 184.186 105.22 183.852 105.78C183.519 106.34 183.052 106.78 182.452 107.1C181.866 107.42 181.179 107.58 180.392 107.58V106C181.059 106 181.579 105.807 181.952 105.42C182.339 105.033 182.532 104.5 182.532 103.82H184.352ZM177.192 113V98.9H179.012V113H177.192Z" fill="#5A2828"/>
<path d="M1158 126.58V119.32H1159.82V126.58H1158ZM1158 119.32C1158 118.587 1158.17 117.94 1158.5 117.38C1158.83 116.807 1159.3 116.367 1159.9 116.06C1160.5 115.74 1161.19 115.58 1161.96 115.58V117.16C1161.29 117.16 1160.77 117.347 1160.38 117.72C1160.01 118.093 1159.82 118.627 1159.82 119.32H1158ZM1158 126.56H1159.82C1159.82 127.253 1160.01 127.793 1160.38 128.18C1160.77 128.553 1161.29 128.74 1161.96 128.74V130.32C1161.19 130.32 1160.5 130.16 1159.9 129.84C1159.3 129.52 1158.83 129.08 1158.5 128.52C1158.17 127.96 1158 127.307 1158 126.56ZM1164.34 119.84C1164.26 119 1164.01 118.347 1163.58 117.88C1163.17 117.4 1162.62 117.16 1161.94 117.16V115.58C1163.07 115.58 1163.99 115.927 1164.7 116.62C1165.42 117.313 1165.85 118.273 1166 119.5L1164.34 119.84ZM1164.34 126.06L1166 126.38C1165.85 127.62 1165.42 128.587 1164.7 129.28C1163.99 129.973 1163.07 130.32 1161.94 130.32V128.74C1162.62 128.74 1163.17 128.507 1163.58 128.04C1164.01 127.56 1164.26 126.9 1164.34 126.06ZM1173.79 126.56V119.32H1175.61V126.56H1173.79ZM1167.71 126.56V119.32H1169.53V126.56H1167.71ZM1175.61 119.34H1173.79C1173.79 118.647 1173.6 118.113 1173.21 117.74C1172.84 117.367 1172.32 117.18 1171.65 117.18V115.6C1172.44 115.6 1173.12 115.76 1173.71 116.08C1174.31 116.387 1174.78 116.827 1175.11 117.4C1175.44 117.96 1175.61 118.607 1175.61 119.34ZM1167.71 119.34C1167.71 118.607 1167.88 117.96 1168.21 117.4C1168.54 116.827 1169.01 116.387 1169.61 116.08C1170.21 115.76 1170.9 115.6 1171.67 115.6V117.18C1171 117.18 1170.48 117.367 1170.09 117.74C1169.72 118.113 1169.53 118.647 1169.53 119.34H1167.71ZM1175.61 126.54C1175.61 127.287 1175.44 127.94 1175.11 128.5C1174.78 129.06 1174.31 129.5 1173.71 129.82C1173.12 130.14 1172.44 130.3 1171.65 130.3V128.72C1172.32 128.72 1172.84 128.533 1173.21 128.16C1173.6 127.773 1173.79 127.233 1173.79 126.54H1175.61ZM1167.71 126.54H1169.53C1169.53 127.233 1169.72 127.773 1170.09 128.16C1170.48 128.533 1171 128.72 1171.67 128.72V130.3C1170.9 130.3 1170.21 130.14 1169.61 129.82C1169.01 129.5 1168.54 129.06 1168.21 128.5C1167.88 127.94 1167.71 127.287 1167.71 126.54ZM1183.89 130L1178.25 115.9H1180.03L1185.67 130H1183.89ZM1177.91 130V115.9H1179.73V130H1177.91ZM1184.37 130V115.9H1186.19V130H1184.37ZM1187.79 117.48V115.9H1196.09V117.48H1187.79ZM1191.03 130V115.9H1192.85V130H1191.03ZM1198.45 127.18V125.62H1203.57V127.18H1198.45ZM1201.67 115.9L1198.23 130H1196.43L1199.87 115.9H1201.67ZM1201.71 115.9L1205.15 130H1203.37L1199.91 115.9H1201.71ZM1206.69 126.58V119.32H1208.51V126.58H1206.69ZM1206.69 119.32C1206.69 118.587 1206.86 117.94 1207.19 117.38C1207.52 116.807 1207.99 116.367 1208.59 116.06C1209.19 115.74 1209.88 115.58 1210.65 115.58V117.16C1209.98 117.16 1209.46 117.347 1209.07 117.72C1208.7 118.093 1208.51 118.627 1208.51 119.32H1206.69ZM1206.69 126.56H1208.51C1208.51 127.253 1208.7 127.793 1209.07 128.18C1209.46 128.553 1209.98 128.74 1210.65 128.74V130.32C1209.88 130.32 1209.19 130.16 1208.59 129.84C1207.99 129.52 1207.52 129.08 1207.19 128.52C1206.86 127.96 1206.69 127.307 1206.69 126.56ZM1213.03 119.84C1212.95 119 1212.7 118.347 1212.27 117.88C1211.86 117.4 1211.31 117.16 1210.63 117.16V115.58C1211.76 115.58 1212.68 115.927 1213.39 116.62C1214.11 117.313 1214.54 118.273 1214.69 119.5L1213.03 119.84ZM1213.03 126.06L1214.69 126.38C1214.54 127.62 1214.11 128.587 1213.39 129.28C1212.68 129.973 1211.76 130.32 1210.63 130.32V128.74C1211.31 128.74 1211.86 128.507 1212.27 128.04C1212.7 127.56 1212.95 126.9 1213.03 126.06ZM1215.37 117.48V115.9H1223.67V117.48H1215.37ZM1218.61 130V115.9H1220.43V130H1218.61ZM1235.08 126.58V115.9H1236.9V126.58H1235.08ZM1229.04 126.58V115.9H1230.86V126.58H1229.04ZM1236.9 126.56C1236.9 127.293 1236.73 127.947 1236.4 128.52C1236.07 129.08 1235.6 129.52 1235 129.84C1234.41 130.147 1233.73 130.3 1232.96 130.3V128.72C1233.63 128.72 1234.15 128.533 1234.52 128.16C1234.89 127.773 1235.08 127.24 1235.08 126.56H1236.9ZM1229.04 126.56H1230.86C1230.86 127.24 1231.05 127.773 1231.42 128.16C1231.81 128.533 1232.33 128.72 1233 128.72V130.3C1232.23 130.3 1231.54 130.147 1230.94 129.84C1230.34 129.52 1229.87 129.08 1229.54 128.52C1229.21 127.947 1229.04 127.293 1229.04 126.56ZM1244.99 126.84C1244.99 126.347 1244.85 125.913 1244.57 125.54C1244.29 125.153 1243.93 124.793 1243.49 124.46C1243.05 124.127 1242.58 123.787 1242.07 123.44C1241.58 123.093 1241.11 122.713 1240.67 122.3C1240.23 121.887 1239.87 121.42 1239.59 120.9C1239.31 120.367 1239.17 119.753 1239.17 119.06H1240.99C1240.99 119.54 1241.13 119.973 1241.41 120.36C1241.69 120.733 1242.05 121.093 1242.49 121.44C1242.93 121.773 1243.4 122.113 1243.89 122.46C1244.4 122.807 1244.87 123.187 1245.31 123.6C1245.75 124 1246.11 124.467 1246.39 125C1246.67 125.52 1246.81 126.133 1246.81 126.84H1244.99ZM1239.17 119.1C1239.17 118.367 1239.34 117.74 1239.67 117.22C1240.01 116.7 1240.47 116.3 1241.07 116.02C1241.67 115.74 1242.36 115.6 1243.13 115.6V117.16C1242.47 117.16 1241.94 117.333 1241.55 117.68C1241.18 118.027 1240.99 118.5 1240.99 119.1H1239.17ZM1246.81 126.8C1246.81 127.52 1246.65 128.147 1246.31 128.68C1245.98 129.2 1245.51 129.6 1244.91 129.88C1244.33 130.16 1243.64 130.3 1242.85 130.3V128.72C1243.52 128.72 1244.04 128.553 1244.41 128.22C1244.8 127.873 1244.99 127.4 1244.99 126.8H1246.81ZM1245.01 118.92C1244.95 118.32 1244.73 117.88 1244.37 117.6C1244.03 117.307 1243.61 117.16 1243.13 117.16V115.6C1243.76 115.6 1244.33 115.727 1244.83 115.98C1245.34 116.233 1245.76 116.58 1246.09 117.02C1246.43 117.46 1246.63 117.98 1246.71 118.58L1245.01 118.92ZM1240.45 126.04C1240.53 126.88 1240.78 127.54 1241.19 128.02C1241.62 128.487 1242.17 128.72 1242.85 128.72V130.3C1241.72 130.3 1240.79 129.953 1240.07 129.26C1239.37 128.567 1238.94 127.607 1238.79 126.38L1240.45 126.04Z" fill="#5A2828"/>
<g clip-path="url(#clip0_175_1007)">
<path d="M1322 160C1316.57 160 1315.89 160.025 1313.76 160.12C1311.62 160.22 1310.17 160.555 1308.9 161.05C1307.57 161.552 1306.36 162.34 1305.36 163.358C1304.34 164.357 1303.55 165.566 1303.05 166.9C1302.55 168.17 1302.22 169.625 1302.12 171.75C1302.03 173.887 1302 174.568 1302 180.003C1302 185.433 1302.03 186.113 1302.12 188.245C1302.22 190.375 1302.55 191.827 1303.05 193.1C1303.56 194.415 1304.25 195.53 1305.36 196.642C1306.47 197.755 1307.58 198.44 1308.9 198.95C1310.17 199.445 1311.62 199.782 1313.75 199.88C1315.89 199.975 1316.57 200 1322 200C1327.43 200 1328.11 199.975 1330.25 199.88C1332.37 199.78 1333.83 199.445 1335.1 198.95C1336.44 198.448 1337.64 197.66 1338.64 196.642C1339.75 195.53 1340.44 194.415 1340.95 193.1C1341.44 191.827 1341.78 190.375 1341.88 188.245C1341.97 186.113 1342 185.433 1342 180C1342 174.568 1341.97 173.888 1341.88 171.753C1341.78 169.625 1341.44 168.17 1340.95 166.9C1340.45 165.566 1339.66 164.357 1338.64 163.358C1337.64 162.339 1336.43 161.552 1335.1 161.05C1333.82 160.555 1332.37 160.218 1330.24 160.12C1328.11 160.025 1327.43 160 1322 160H1322H1322ZM1320.21 163.605H1322C1327.34 163.605 1327.98 163.623 1330.08 163.72C1332.03 163.808 1333.09 164.135 1333.8 164.408C1334.73 164.77 1335.4 165.205 1336.1 165.905C1336.8 166.605 1337.23 167.27 1337.59 168.205C1337.87 168.908 1338.19 169.968 1338.28 171.918C1338.38 174.025 1338.4 174.658 1338.4 179.995C1338.4 185.333 1338.38 185.967 1338.28 188.075C1338.19 190.025 1337.87 191.083 1337.59 191.788C1337.27 192.656 1336.76 193.441 1336.09 194.085C1335.4 194.785 1334.73 195.218 1333.8 195.58C1333.1 195.855 1332.03 196.18 1330.08 196.27C1327.98 196.365 1327.34 196.388 1322 196.388C1316.66 196.388 1316.03 196.365 1313.92 196.27C1311.97 196.18 1310.91 195.855 1310.21 195.58C1309.34 195.26 1308.55 194.749 1307.91 194.085C1307.24 193.44 1306.73 192.654 1306.41 191.785C1306.14 191.082 1305.81 190.023 1305.72 188.073C1305.62 185.965 1305.61 185.333 1305.61 179.99C1305.61 174.65 1305.62 174.02 1305.72 171.912C1305.81 169.962 1306.14 168.903 1306.41 168.198C1306.77 167.265 1307.21 166.597 1307.91 165.898C1308.61 165.197 1309.27 164.765 1310.21 164.403C1310.91 164.128 1311.97 163.803 1313.92 163.713C1315.77 163.628 1316.48 163.603 1320.21 163.6V163.605ZM1332.68 166.925C1332.36 166.925 1332.05 166.987 1331.76 167.108C1331.47 167.228 1331.2 167.405 1330.98 167.628C1330.76 167.851 1330.58 168.115 1330.46 168.407C1330.34 168.698 1330.28 169.01 1330.28 169.325C1330.28 169.64 1330.34 169.952 1330.46 170.243C1330.58 170.535 1330.76 170.799 1330.98 171.022C1331.2 171.245 1331.47 171.422 1331.76 171.542C1332.05 171.663 1332.36 171.725 1332.68 171.725C1333.31 171.725 1333.92 171.472 1334.37 171.022C1334.82 170.572 1335.08 169.962 1335.08 169.325C1335.08 168.688 1334.82 168.078 1334.37 167.628C1333.92 167.178 1333.31 166.925 1332.68 166.925ZM1322 169.73C1320.64 169.709 1319.29 169.959 1318.02 170.465C1316.76 170.972 1315.61 171.725 1314.64 172.681C1313.66 173.637 1312.89 174.776 1312.37 176.033C1311.84 177.29 1311.57 178.639 1311.57 180.001C1311.57 181.364 1311.84 182.713 1312.37 183.969C1312.89 185.226 1313.66 186.366 1314.64 187.321C1315.61 188.277 1316.76 189.031 1318.02 189.537C1319.29 190.044 1320.64 190.294 1322 190.273C1324.7 190.23 1327.27 189.13 1329.16 187.208C1331.05 185.286 1332.11 182.698 1332.11 180.001C1332.11 177.305 1331.05 174.716 1329.16 172.794C1327.27 170.873 1324.7 169.772 1322 169.73ZM1322 173.333C1323.77 173.333 1325.47 174.035 1326.72 175.285C1327.97 176.536 1328.67 178.232 1328.67 180C1328.67 181.768 1327.97 183.464 1326.72 184.715C1325.47 185.965 1323.77 186.667 1322 186.667C1320.23 186.667 1318.54 185.965 1317.29 184.715C1316.04 183.464 1315.34 181.768 1315.34 180C1315.34 178.232 1316.04 176.536 1317.29 175.285C1318.54 174.035 1320.23 173.333 1322 173.333Z" fill="white"/>
</g>
<path d="M1259.75 165.183C1258.22 163.64 1256.4 162.416 1254.4 161.583C1252.39 160.75 1250.24 160.326 1248.07 160.333C1238.97 160.333 1231.55 167.75 1231.55 176.85C1231.55 179.766 1232.32 182.6 1233.75 185.1L1231.42 193.666L1240.17 191.366C1242.58 192.683 1245.3 193.383 1248.07 193.383C1257.17 193.383 1264.58 185.966 1264.58 176.866C1264.58 172.45 1262.87 168.3 1259.75 165.183ZM1248.07 190.583C1245.6 190.583 1243.18 189.916 1241.07 188.666L1240.57 188.366L1235.37 189.733L1236.75 184.666L1236.42 184.15C1235.05 181.961 1234.32 179.432 1234.32 176.85C1234.32 169.283 1240.48 163.116 1248.05 163.116C1251.72 163.116 1255.17 164.55 1257.75 167.15C1259.03 168.423 1260.04 169.938 1260.73 171.605C1261.42 173.273 1261.77 175.062 1261.77 176.866C1261.8 184.433 1255.63 190.583 1248.07 190.583ZM1255.6 180.316C1255.18 180.116 1253.15 179.116 1252.78 178.966C1252.4 178.833 1252.13 178.766 1251.85 179.166C1251.57 179.583 1250.78 180.516 1250.55 180.783C1250.32 181.066 1250.07 181.1 1249.65 180.883C1249.23 180.683 1247.9 180.233 1246.33 178.833C1245.1 177.733 1244.28 176.383 1244.03 175.966C1243.8 175.55 1244 175.333 1244.22 175.116C1244.4 174.933 1244.63 174.633 1244.83 174.4C1245.03 174.166 1245.12 173.983 1245.25 173.716C1245.38 173.433 1245.32 173.2 1245.22 173C1245.12 172.8 1244.28 170.766 1243.95 169.933C1243.62 169.133 1243.27 169.233 1243.02 169.216H1242.22C1241.93 169.216 1241.5 169.316 1241.12 169.733C1240.75 170.15 1239.68 171.15 1239.68 173.183C1239.68 175.216 1241.17 177.183 1241.37 177.45C1241.57 177.733 1244.28 181.9 1248.42 183.683C1249.4 184.116 1250.17 184.366 1250.77 184.55C1251.75 184.866 1252.65 184.816 1253.37 184.716C1254.17 184.6 1255.82 183.716 1256.15 182.75C1256.5 181.783 1256.5 180.966 1256.38 180.783C1256.27 180.6 1256.02 180.516 1255.6 180.316Z" fill="white"/>
<path d="M1190.67 177C1190.67 167.8 1183.2 160.333 1174 160.333C1164.8 160.333 1157.33 167.8 1157.33 177C1157.33 185.066 1163.07 191.783 1170.67 193.333V182H1167.33V177H1170.67V172.833C1170.67 169.616 1173.28 167 1176.5 167H1180.67V172H1177.33C1176.42 172 1175.67 172.75 1175.67 173.666V177H1180.67V182H1175.67V193.583C1184.08 192.75 1190.67 185.65 1190.67 177Z" fill="white"/>
<path d="M145.8 136.74V135.18H151.92V136.74H145.8ZM151.32 143V128.9H153.14V143H151.32ZM145.2 143V128.9H147.02V143H145.2ZM155.612 138.5V137.2H162.432V138.5H155.612ZM158.712 143.32V141.74H158.812V143.32H158.712ZM155.032 139.42V136.48H156.852V139.42H155.032ZM160.612 137.2V136.16H162.432V137.2H160.612ZM162.432 136.16H160.612C160.612 135.573 160.432 135.093 160.072 134.72C159.725 134.347 159.272 134.16 158.712 134.16V132.6C159.432 132.6 160.065 132.753 160.612 133.06C161.172 133.367 161.612 133.793 161.932 134.34C162.265 134.873 162.432 135.48 162.432 136.16ZM160.692 140L162.392 140.34C162.312 140.913 162.105 141.427 161.772 141.88C161.439 142.333 161.019 142.687 160.512 142.94C160.005 143.193 159.439 143.32 158.812 143.32V141.74C159.292 141.74 159.705 141.6 160.052 141.32C160.412 141.027 160.625 140.587 160.692 140ZM155.032 136.5C155.032 135.74 155.192 135.073 155.512 134.5C155.845 133.913 156.285 133.453 156.832 133.12C157.392 132.773 158.025 132.6 158.732 132.6V134.16C158.145 134.16 157.685 134.367 157.352 134.78C157.019 135.18 156.852 135.753 156.852 136.5H155.032ZM155.032 139.42H156.852C156.852 140.153 157.019 140.727 157.352 141.14C157.685 141.54 158.145 141.74 158.732 141.74V143.32C158.025 143.32 157.392 143.153 156.832 142.82C156.285 142.473 155.845 142.007 155.512 141.42C155.192 140.833 155.032 140.167 155.032 139.42ZM164.482 143V128.6H166.302V143H164.482ZM168.911 142.98H170.731V147H168.911V142.98ZM170.731 132.9V143H168.911V132.9H170.731ZM176.351 136.12V139.78H174.531V136.12H176.351ZM174.531 139.78H176.351C176.351 140.447 176.211 141.047 175.931 141.58C175.651 142.113 175.264 142.533 174.771 142.84C174.291 143.147 173.744 143.3 173.131 143.3L172.671 141.68C173.218 141.68 173.664 141.507 174.011 141.16C174.358 140.8 174.531 140.34 174.531 139.78ZM169.931 139.72H170.731C170.731 140.307 170.911 140.78 171.271 141.14C171.631 141.5 172.098 141.68 172.671 141.68L173.131 143.3C172.518 143.3 171.971 143.147 171.491 142.84C171.011 142.52 170.631 142.093 170.351 141.56C170.071 141.013 169.931 140.4 169.931 139.72ZM174.531 136.12C174.531 135.56 174.358 135.107 174.011 134.76C173.664 134.4 173.218 134.22 172.671 134.22L173.131 132.6C173.744 132.6 174.291 132.753 174.771 133.06C175.264 133.367 175.651 133.787 175.931 134.32C176.211 134.853 176.351 135.453 176.351 136.12H174.531ZM169.931 136.16C169.931 135.48 170.071 134.873 170.351 134.34C170.631 133.793 171.011 133.367 171.491 133.06C171.971 132.753 172.518 132.6 173.131 132.6L172.671 134.22C172.098 134.22 171.631 134.4 171.271 134.76C170.911 135.12 170.731 135.587 170.731 136.16H169.931ZM191.852 143L185.072 135.32L186.212 134.14L193.052 141.88L191.852 143ZM186.012 143.32C184.812 143.32 183.878 143 183.212 142.36C182.545 141.72 182.212 140.86 182.212 139.78L184.012 139.84C184.012 140.467 184.192 140.94 184.552 141.26C184.912 141.58 185.398 141.74 186.012 141.74V143.32ZM186.012 143.32V141.74C186.252 141.74 186.505 141.693 186.772 141.6C187.038 141.507 187.318 141.353 187.612 141.14C187.918 140.927 188.245 140.64 188.592 140.28L189.612 141.52C189.185 141.96 188.765 142.313 188.352 142.58C187.952 142.833 187.558 143.02 187.172 143.14C186.798 143.26 186.412 143.32 186.012 143.32ZM182.212 139.78C182.198 139.327 182.292 138.873 182.492 138.42C182.692 137.953 182.952 137.513 183.272 137.1C183.592 136.673 183.932 136.28 184.292 135.92C184.665 135.547 185.018 135.213 185.352 134.92C185.698 134.613 185.985 134.353 186.212 134.14L187.372 135.46C187.185 135.673 186.905 135.94 186.532 136.26C186.172 136.58 185.798 136.933 185.412 137.32C185.025 137.707 184.692 138.113 184.412 138.54C184.145 138.967 184.012 139.4 184.012 139.84L182.212 139.78ZM189.612 141.52L188.592 140.28L191.372 137.26L192.492 138.32L189.612 141.52ZM185.072 135.32C184.765 134.973 184.458 134.613 184.152 134.24C183.845 133.867 183.585 133.473 183.372 133.06C183.172 132.633 183.072 132.187 183.072 131.72L184.832 131.7C184.832 131.993 184.905 132.287 185.052 132.58C185.198 132.86 185.378 133.133 185.592 133.4C185.818 133.667 186.025 133.913 186.212 134.14L185.072 135.32ZM183.072 131.72C183.058 131.133 183.185 130.607 183.452 130.14C183.732 129.66 184.125 129.287 184.632 129.02C185.138 128.74 185.705 128.6 186.332 128.6V130.18C185.905 130.18 185.545 130.327 185.252 130.62C184.958 130.9 184.818 131.26 184.832 131.7L183.072 131.72ZM188.212 131.92C188.145 131.32 187.932 130.88 187.572 130.6C187.225 130.32 186.805 130.18 186.312 130.18V128.6C186.938 128.6 187.505 128.727 188.012 128.98C188.532 129.233 188.952 129.587 189.272 130.04C189.605 130.48 189.812 130.993 189.892 131.58L188.212 131.92ZM200.543 136.78V135.16H204.583V136.78H200.543ZM199.223 128.9H201.043V143H199.223V128.9ZM200.443 128.9H205.583V130.48H200.443V128.9ZM207.558 140.18V138.62H212.678V140.18H207.558ZM210.778 128.9L207.338 143H205.538L208.978 128.9H210.778ZM210.817 128.9L214.258 143H212.478L209.018 128.9H210.817ZM221.921 145.84C221.561 145.8 221.207 145.667 220.861 145.44C220.514 145.213 220.194 144.927 219.901 144.58C219.621 144.247 219.381 143.913 219.181 143.58L219.821 142.82C220.221 143.247 220.641 143.613 221.081 143.92C221.534 144.24 222.041 144.447 222.601 144.54L221.921 145.84ZM221.981 139.56V132.32H223.801V139.56H221.981ZM215.901 139.56V132.32H217.721V139.56H215.901ZM223.801 132.34H221.981C221.981 131.647 221.787 131.113 221.401 130.74C221.027 130.367 220.507 130.18 219.841 130.18V128.6C220.627 128.6 221.314 128.76 221.901 129.08C222.501 129.387 222.967 129.827 223.301 130.4C223.634 130.96 223.801 131.607 223.801 132.34ZM215.901 132.34C215.901 131.607 216.067 130.96 216.401 130.4C216.734 129.827 217.201 129.387 217.801 129.08C218.401 128.76 219.087 128.6 219.861 128.6V130.18C219.194 130.18 218.667 130.367 218.281 130.74C217.907 131.113 217.721 131.647 217.721 132.34H215.901ZM223.801 139.54C223.801 140.287 223.634 140.94 223.301 141.5C222.967 142.06 222.501 142.5 221.901 142.82C221.314 143.14 220.627 143.3 219.841 143.3V141.72C220.507 141.72 221.027 141.533 221.401 141.16C221.787 140.773 221.981 140.233 221.981 139.54H223.801ZM215.901 139.54H217.721C217.721 140.233 217.907 140.773 218.281 141.16C218.667 141.533 219.194 141.72 219.861 141.72V143.3C219.087 143.3 218.401 143.14 217.801 142.82C217.201 142.5 216.734 142.06 216.401 141.5C216.067 140.94 215.901 140.287 215.901 139.54Z" fill="white"/>
<path d="M354.38 138.48V136.9H356.42V138.48H354.38ZM354.38 145.58V144H356.42V145.58H354.38ZM358.54 141.84V140.64H360.36V141.84H358.54ZM360.36 140.64H358.54C358.54 139.947 358.347 139.413 357.96 139.04C357.587 138.667 357.067 138.48 356.4 138.48V136.9C357.187 136.9 357.873 137.06 358.46 137.38C359.06 137.687 359.527 138.127 359.86 138.7C360.193 139.26 360.36 139.907 360.36 140.64ZM360.36 141.82C360.36 142.567 360.193 143.22 359.86 143.78C359.527 144.34 359.06 144.78 358.46 145.1C357.873 145.42 357.187 145.58 356.4 145.58V144C357.067 144 357.587 143.807 357.96 143.42C358.347 143.033 358.54 142.5 358.54 141.82H360.36ZM353.2 151V136.9H355.02V151H353.2ZM362.067 151V140.9H363.887V151H362.067ZM363.067 144.34C363.067 143.647 363.187 143.02 363.427 142.46C363.681 141.9 364.021 141.467 364.447 141.16C364.874 140.84 365.354 140.68 365.887 140.68L365.487 142.38C365.021 142.38 364.634 142.567 364.327 142.94C364.034 143.3 363.887 143.767 363.887 144.34H363.067ZM366.767 142.92C366.567 142.747 366.354 142.613 366.127 142.52C365.914 142.427 365.701 142.38 365.487 142.38L365.887 140.68C366.194 140.68 366.481 140.733 366.747 140.84C367.014 140.933 367.281 141.107 367.547 141.36L366.767 142.92ZM369.377 151V140.9H371.197V151H369.377ZM370.277 139.56C369.943 139.56 369.663 139.447 369.437 139.22C369.21 138.993 369.097 138.713 369.097 138.38C369.097 138.047 369.21 137.767 369.437 137.54C369.663 137.3 369.943 137.18 370.277 137.18C370.61 137.18 370.89 137.3 371.117 137.54C371.357 137.767 371.477 138.047 371.477 138.38C371.477 138.713 371.357 138.993 371.117 139.22C370.89 139.447 370.61 139.56 370.277 139.56ZM376.665 151L379.785 140.9H381.605L378.345 151H376.665ZM376.485 151L373.205 140.9H375.025L378.145 151H376.485ZM388.561 151V144.12H390.381V151H388.561ZM386.121 151.3L386.261 149.8C386.741 149.8 387.148 149.68 387.481 149.44C387.828 149.2 388.094 148.847 388.281 148.38C388.468 147.913 388.561 147.36 388.561 146.72L389.461 146.68C389.461 147.587 389.314 148.387 389.021 149.08C388.728 149.773 388.328 150.32 387.821 150.72C387.328 151.107 386.761 151.3 386.121 151.3ZM386.121 151.3C385.521 151.3 384.974 151.16 384.481 150.88C383.988 150.6 383.594 150.22 383.301 149.74C383.008 149.247 382.861 148.7 382.861 148.1L384.581 148.04C384.581 148.547 384.748 148.967 385.081 149.3C385.428 149.633 385.821 149.8 386.261 149.8L386.121 151.3ZM382.861 148.1C382.861 147.473 383.014 146.927 383.321 146.46C383.641 145.98 384.068 145.6 384.601 145.32C385.134 145.04 385.741 144.9 386.421 144.9L386.521 146.3C385.961 146.3 385.494 146.467 385.121 146.8C384.761 147.12 384.581 147.533 384.581 148.04L382.861 148.1ZM386.521 146.3L386.421 144.9H389.501V146.3H386.521ZM388.561 146.72V144.14H389.461V146.68L388.561 146.72ZM390.381 144.16H388.561C388.561 143.573 388.381 143.093 388.021 142.72C387.674 142.347 387.221 142.16 386.661 142.16V140.6C387.381 140.6 388.014 140.753 388.561 141.06C389.121 141.367 389.561 141.793 389.881 142.34C390.214 142.873 390.381 143.48 390.381 144.16ZM384.781 143.92L383.101 143.58C383.181 142.98 383.381 142.46 383.701 142.02C384.034 141.58 384.454 141.233 384.961 140.98C385.481 140.727 386.054 140.6 386.681 140.6V142.16C386.188 142.16 385.761 142.307 385.401 142.6C385.054 142.88 384.848 143.32 384.781 143.92ZM392.255 147.44V144.46H394.075V147.44H392.255ZM392.255 144.48C392.255 143.733 392.415 143.067 392.735 142.48C393.069 141.893 393.509 141.433 394.055 141.1C394.615 140.753 395.249 140.58 395.955 140.58V142.16C395.369 142.16 394.909 142.36 394.575 142.76C394.242 143.16 394.075 143.733 394.075 144.48H392.255ZM397.815 143.9C397.749 143.3 397.535 142.86 397.175 142.58C396.829 142.3 396.415 142.16 395.935 142.16V140.58C396.562 140.58 397.129 140.707 397.635 140.96C398.142 141.213 398.562 141.567 398.895 142.02C399.229 142.46 399.435 142.973 399.515 143.56L397.815 143.9ZM392.255 147.42H394.075C394.075 148.153 394.242 148.727 394.575 149.14C394.909 149.54 395.369 149.74 395.955 149.74V151.32C395.249 151.32 394.615 151.153 394.055 150.82C393.509 150.473 393.069 150.007 392.735 149.42C392.415 148.833 392.255 148.167 392.255 147.42ZM397.815 148L399.515 148.34C399.435 148.913 399.229 149.427 398.895 149.88C398.562 150.333 398.142 150.687 397.635 150.94C397.129 151.193 396.562 151.32 395.935 151.32V149.74C396.415 149.74 396.829 149.6 397.175 149.32C397.535 149.027 397.749 148.587 397.815 148ZM401.249 154.7L401.629 153.2C402.149 153.333 402.582 153.3 402.929 153.1C403.275 152.9 403.549 152.487 403.749 151.86H405.429C405.029 153.113 404.475 153.967 403.769 154.42C403.075 154.873 402.235 154.967 401.249 154.7ZM403.749 151.86L407.169 140.9H408.989L405.429 151.86H403.749ZM404.089 151.74L400.569 140.9H402.389L404.989 149.2L404.089 151.74ZM415.747 138.48V136.9H417.787V138.48H415.747ZM415.747 145.58V144H417.787V145.58H415.747ZM419.907 141.84V140.64H421.727V141.84H419.907ZM421.727 140.64H419.907C419.907 139.947 419.714 139.413 419.327 139.04C418.954 138.667 418.434 138.48 417.767 138.48V136.9C418.554 136.9 419.241 137.06 419.827 137.38C420.427 137.687 420.894 138.127 421.227 138.7C421.561 139.26 421.727 139.907 421.727 140.64ZM421.727 141.82C421.727 142.567 421.561 143.22 421.227 143.78C420.894 144.34 420.427 144.78 419.827 145.1C419.241 145.42 418.554 145.58 417.767 145.58V144C418.434 144 418.954 143.807 419.327 143.42C419.714 143.033 419.907 142.5 419.907 141.82H421.727ZM414.567 151V136.9H416.387V151H414.567ZM428.047 147.42V144.48H429.867V147.42H428.047ZM422.427 147.42V144.48H424.247V147.42H422.427ZM426.087 142.18V140.6H426.207V142.18H426.087ZM426.087 151.3V149.72H426.207V151.3H426.087ZM422.427 144.5C422.427 143.753 422.587 143.087 422.907 142.5C423.24 141.913 423.68 141.453 424.227 141.12C424.787 140.773 425.42 140.6 426.127 140.6V142.18C425.54 142.18 425.08 142.38 424.747 142.78C424.413 143.18 424.247 143.753 424.247 144.5H422.427ZM429.867 144.5H428.047C428.047 143.753 427.88 143.18 427.547 142.78C427.227 142.38 426.767 142.18 426.167 142.18V140.6C426.873 140.6 427.5 140.773 428.047 141.12C428.607 141.453 429.047 141.913 429.367 142.5C429.7 143.087 429.867 143.753 429.867 144.5ZM422.427 147.4H424.247C424.247 148.133 424.413 148.707 424.747 149.12C425.08 149.52 425.54 149.72 426.127 149.72V151.3C425.42 151.3 424.787 151.133 424.227 150.8C423.68 150.453 423.24 149.987 422.907 149.4C422.587 148.813 422.427 148.147 422.427 147.4ZM429.867 147.4C429.867 148.147 429.7 148.813 429.367 149.4C429.047 149.987 428.607 150.453 428.047 150.8C427.5 151.133 426.873 151.3 426.167 151.3V149.72C426.767 149.72 427.227 149.52 427.547 149.12C427.88 148.707 428.047 148.133 428.047 147.4H429.867ZM431.916 151V136.6H433.736V151H431.916ZM436.545 151V140.9H438.365V151H436.545ZM437.445 139.56C437.111 139.56 436.831 139.447 436.605 139.22C436.378 138.993 436.265 138.713 436.265 138.38C436.265 138.047 436.378 137.767 436.605 137.54C436.831 137.3 437.111 137.18 437.445 137.18C437.778 137.18 438.058 137.3 438.285 137.54C438.525 137.767 438.645 138.047 438.645 138.38C438.645 138.713 438.525 138.993 438.285 139.22C438.058 139.447 437.778 139.56 437.445 139.56ZM440.615 147.44V144.46H442.435V147.44H440.615ZM440.615 144.48C440.615 143.733 440.775 143.067 441.095 142.48C441.428 141.893 441.868 141.433 442.415 141.1C442.975 140.753 443.608 140.58 444.315 140.58V142.16C443.728 142.16 443.268 142.36 442.935 142.76C442.602 143.16 442.435 143.733 442.435 144.48H440.615ZM446.175 143.9C446.108 143.3 445.895 142.86 445.535 142.58C445.188 142.3 444.775 142.16 444.295 142.16V140.58C444.922 140.58 445.488 140.707 445.995 140.96C446.502 141.213 446.922 141.567 447.255 142.02C447.588 142.46 447.795 142.973 447.875 143.56L446.175 143.9ZM440.615 147.42H442.435C442.435 148.153 442.602 148.727 442.935 149.14C443.268 149.54 443.728 149.74 444.315 149.74V151.32C443.608 151.32 442.975 151.153 442.415 150.82C441.868 150.473 441.428 150.007 441.095 149.42C440.775 148.833 440.615 148.167 440.615 147.42ZM446.175 148L447.875 148.34C447.795 148.913 447.588 149.427 447.255 149.88C446.922 150.333 446.502 150.687 445.995 150.94C445.488 151.193 444.922 151.32 444.295 151.32V149.74C444.775 149.74 445.188 149.6 445.535 149.32C445.895 149.027 446.108 148.587 446.175 148ZM449.608 154.7L449.988 153.2C450.508 153.333 450.941 153.3 451.288 153.1C451.635 152.9 451.908 152.487 452.108 151.86H453.788C453.388 153.113 452.835 153.967 452.128 154.42C451.435 154.873 450.595 154.967 449.608 154.7ZM452.108 151.86L455.528 140.9H457.348L453.788 151.86H452.108ZM452.448 151.74L448.928 140.9H450.748L453.348 149.2L452.448 151.74Z" fill="white"/>
<defs>
<linearGradient id="paint0_linear_175_1007" x1="714" y1="0" x2="714" y2="309" gradientUnits="userSpaceOnUse">
<stop offset="0.338542" stop-color="#CA8D55"/>
<stop offset="0.671875" stop-color="#FF8D4C"/>
</linearGradient>
<clipPath id="clip0_175_1007">
<rect width="40" height="40" fill="white" transform="translate(1302 160)"/>
</clipPath>
</defs>
</svg>
