<svg width="15" height="10" viewBox="0 0 15 10" fill="none" xmlns="http://www.w3.org/2000/svg">
<path d="M7.98273 0.295141C8.17041 0.13305 8.42491 0.0419922 8.69029 0.0419922C8.95566 0.0419922 9.21017 0.13305 9.39784 0.295141L13.9014 4.18593C14.089 4.34807 14.1944 4.56795 14.1944 4.79721C14.1944 5.02648 14.089 5.24636 13.9014 5.4085L9.39784 9.29928C9.20909 9.45678 8.95629 9.54393 8.69389 9.54196C8.43149 9.53999 8.18048 9.44906 7.99492 9.28875C7.80937 9.12844 7.70412 8.91159 7.70184 8.68489C7.69956 8.45819 7.80043 8.23978 7.98273 8.07671L10.6919 5.66183H1.18438C0.918956 5.66183 0.664402 5.57074 0.476718 5.40859C0.289034 5.24644 0.183594 5.02652 0.183594 4.79721C0.183594 4.5679 0.289034 4.34798 0.476718 4.18583C0.664402 4.02369 0.918956 3.93259 1.18438 3.93259H10.6919L7.98273 1.51771C7.79511 1.35557 7.68971 1.13569 7.68971 0.906426C7.68971 0.677161 7.79511 0.457281 7.98273 0.295141Z" fill="#5A2828"/>
</svg>
