<svg width="19" height="13" viewBox="0 0 19 13" fill="none" xmlns="http://www.w3.org/2000/svg">
<path d="M8.42362 0.346414C8.16912 0.124605 7.82398 0 7.46411 0C7.10424 0 6.7591 0.124605 6.5046 0.346414L0.39736 5.67065C0.142931 5.89252 0 6.19341 0 6.50714C0 6.82088 0.142931 7.12176 0.39736 7.34364L6.5046 12.6679C6.76056 12.8834 7.10338 13.0027 7.45922 13C7.81507 12.9973 8.15546 12.8728 8.40709 12.6535C8.65872 12.4341 8.80145 12.1373 8.80454 11.8271C8.80764 11.5169 8.67084 11.218 8.42362 10.9949L4.74978 7.69031H17.6428C18.0028 7.69031 18.348 7.56565 18.6025 7.34377C18.857 7.12188 19 6.82094 19 6.50714C19 6.19335 18.857 5.89241 18.6025 5.67052C18.348 5.44864 18.0028 5.32398 17.6428 5.32398H4.74978L8.42362 2.01941C8.67805 1.79753 8.82098 1.49664 8.82098 1.18291C8.82098 0.869178 8.67805 0.56829 8.42362 0.346414Z" fill="#5A2828"/>
</svg>
