<svg width="53" height="63" viewBox="0 0 53 63" fill="none" xmlns="http://www.w3.org/2000/svg">
<path d="M19.875 63C17.2692 63 15.0714 61.9374 13.2818 59.8122C11.4922 57.687 10.5982 55.0746 10.6 51.975C10.6 51.5025 10.6557 51.135 10.767 50.8725C10.8783 50.61 10.8668 50.4 10.7325 50.2425C10.6 50.085 10.4233 50.0713 10.2025 50.2015C9.98167 50.3317 9.6725 50.3979 9.275 50.4C6.66917 50.4 4.47144 49.3374 2.6818 47.2122C0.892169 45.087 -0.00176405 42.4746 2.61341e-06 39.375C2.61341e-06 36.2775 0.893936 33.6651 2.6818 31.5378C4.46967 29.4105 6.6674 28.3479 9.275 28.35C10.2908 28.35 11.2183 28.5075 12.0575 28.8225C12.8967 29.1375 13.6917 29.61 14.4425 30.24L25.44 17.1675C24.91 16.275 24.5125 15.33 24.2475 14.3325C23.9825 13.335 23.85 12.2325 23.85 11.025C23.85 7.9275 24.7448 5.3151 26.5344 3.1878C28.3241 1.0605 30.5209 -0.00209689 33.125 3.10651e-06C35.7308 3.10651e-06 37.9286 1.0626 39.7182 3.1878C41.5078 5.313 42.4018 7.9254 42.4 11.025C42.4 11.4975 42.3443 11.865 42.233 12.1275C42.1217 12.39 42.1332 12.6 42.2675 12.7575C42.4 12.915 42.5767 12.9287 42.7975 12.7985C43.0183 12.6683 43.3275 12.6021 43.725 12.6C46.3308 12.6 48.5286 13.6626 50.3182 15.7878C52.1078 17.913 53.0018 20.5254 53 23.625C53 26.7225 52.1061 29.3349 50.3182 31.4622C48.5303 33.5895 46.3326 34.6521 43.725 34.65C42.7092 34.65 41.7817 34.4925 40.9425 34.1775C40.1033 33.8625 39.3083 33.39 38.5575 32.76L27.56 45.8325C28.09 46.725 28.4875 47.67 28.7525 48.6675C29.0175 49.665 29.15 50.7675 29.15 51.975C29.15 55.0725 28.2561 57.6849 26.4682 59.8122C24.6803 61.9395 22.4826 63.0021 19.875 63Z" fill="#CA8D55" fill-opacity="0.68"/>
</svg>
