<svg width="38" height="37" viewBox="0 0 38 37" fill="none" xmlns="http://www.w3.org/2000/svg">
<path d="M14.25 37C12.3817 37 10.8059 36.3759 9.5228 35.1278C8.23967 33.8797 7.59873 32.3454 7.6 30.525C7.6 30.2475 7.6399 30.0317 7.7197 29.8775C7.7995 29.7233 7.79127 29.6 7.695 29.5075C7.6 29.415 7.47333 29.407 7.315 29.4834C7.15667 29.5599 6.935 29.5988 6.65 29.6C4.78167 29.6 3.20594 28.9759 1.9228 27.7278C0.639669 26.4797 -0.00126479 24.9454 1.87377e-06 23.125C1.87377e-06 21.3058 0.640935 19.7716 1.9228 18.5222C3.20467 17.2728 4.7804 16.6488 6.65 16.65C7.37833 16.65 8.04333 16.7425 8.645 16.9275C9.24667 17.1125 9.81667 17.39 10.355 17.76L18.24 10.0825C17.86 9.55833 17.575 9.00333 17.385 8.4175C17.195 7.83167 17.1 7.18417 17.1 6.475C17.1 4.65583 17.7416 3.12157 19.0247 1.8722C20.3078 0.622835 21.8829 -0.00123151 23.75 1.82446e-06C25.6183 1.82446e-06 27.1941 0.624069 28.4772 1.8722C29.7603 3.12033 30.4013 4.6546 30.4 6.475C30.4 6.7525 30.3601 6.96833 30.2803 7.1225C30.2005 7.27667 30.2087 7.4 30.305 7.4925C30.4 7.585 30.5267 7.59302 30.685 7.51655C30.8433 7.44008 31.065 7.40123 31.35 7.4C33.2183 7.4 34.7941 8.02407 36.0772 9.2722C37.3603 10.5203 38.0013 12.0546 38 13.875C38 15.6942 37.3591 17.2284 36.0772 18.4778C34.7953 19.7272 33.2196 20.3512 31.35 20.35C30.6217 20.35 29.9567 20.2575 29.355 20.0725C28.7533 19.8875 28.1833 19.61 27.645 19.24L19.76 26.9175C20.14 27.4417 20.425 27.9967 20.615 28.5825C20.805 29.1683 20.9 29.8158 20.9 30.525C20.9 32.3442 20.2591 33.8784 18.9772 35.1278C17.6953 36.3772 16.1196 37.0012 14.25 37Z" fill="#5A2828" fill-opacity="0.56"/>
</svg>
