<svg width="75" height="75" viewBox="0 0 75 75" fill="none" xmlns="http://www.w3.org/2000/svg">
<g clip-path="url(#clip0_175_674)">
<path d="M32.4549 25.6033C33.3638 27.7867 35.9027 28.8875 38.1257 28.0621C40.3486 27.2367 41.4139 24.7977 40.505 22.6144C39.5962 20.4311 37.0573 19.3302 34.8343 20.1556C32.6114 20.981 31.5461 23.42 32.4549 25.6033Z" fill="#FF8D4C" fill-opacity="0.38"/>
<path d="M41.8573 30.3289C42.7662 32.5123 45.305 33.6131 47.528 32.7877C49.751 31.9623 50.8163 29.5233 49.9074 27.34C48.9985 25.1566 46.4596 24.0558 44.2367 24.8812C42.0137 25.7066 40.9484 28.1456 41.8573 30.3289Z" fill="#FF8D4C" fill-opacity="0.38"/>
<path d="M45.807 39.8162C46.7159 41.9996 49.2547 43.1004 51.4777 42.275C53.7007 41.4496 54.766 39.0106 53.8571 36.8273C52.9482 34.644 50.4094 33.5431 48.1864 34.3685C45.9634 35.1939 44.8981 37.6329 45.807 39.8162Z" fill="#FF8D4C" fill-opacity="0.38"/>
<path d="M42.329 49.3231C43.2378 51.5064 45.7767 52.6072 47.9997 51.7818C50.2226 50.9565 51.2879 48.5174 50.3791 46.3341C49.4702 44.1508 46.9313 43.05 44.7084 43.8753C42.4854 44.7007 41.4201 47.1398 42.329 49.3231Z" fill="#FF8D4C" fill-opacity="0.38"/>
<path d="M36.3025 47.6174C37.372 45.6319 38.2922 43.9575 39.3551 41.9562C39.9217 40.906 40.4028 39.6502 40.3284 38.3999C40.3204 38.202 40.2963 38.0101 40.256 37.8242C40.1559 37.405 39.9782 36.978 39.807 36.5669C39.6359 36.1558 39.4581 35.7288 39.2065 35.3476C39.1019 35.1856 38.9812 35.0296 38.8443 34.8795C37.9972 33.9161 36.746 33.3218 35.5672 32.9014C33.3523 32.1354 31.471 31.5011 29.2495 30.7193C26.2781 29.4309 22.8837 27.7518 19.8129 29.4397C18.3616 30.5081 17.216 32.2662 17.6114 34.5111C17.8504 35.7551 20.3341 39.0868 21.9666 43.0084L22.0851 43.293C23.7176 47.2147 24.3175 51.2458 25.0234 52.3165C26.3527 54.2146 28.4754 54.7592 30.2924 54.614C33.7809 53.8847 35.0557 50.472 36.3025 47.6174Z" fill="#5A2828" fill-opacity="0.4"/>
</g>
<defs>
<clipPath id="clip0_175_674">
<rect width="41.1081" height="41.218" fill="white" transform="matrix(0.384312 0.923203 -0.937466 0.348078 48.813 11.3145)"/>
</clipPath>
</defs>
</svg>
