<svg width="126" height="128" viewBox="0 0 126 128" fill="none" xmlns="http://www.w3.org/2000/svg">
<g clip-path="url(#clip0_678_160)">
<path d="M34.5425 53.4584C39.7154 55.3991 45.5581 52.576 47.5927 47.1529C49.6273 41.7298 47.0832 35.7603 41.9103 33.8196C36.7374 31.8789 30.8946 34.702 28.86 40.1251C26.8255 45.5482 29.3696 51.5177 34.5425 53.4584Z" fill="#FF8D4C" fill-opacity="0.38"/>
<path d="M57.2959 44.0727C62.4688 46.0133 68.3116 43.1903 70.3461 37.7672C72.3807 32.3441 69.8366 26.3746 64.6637 24.4339C59.4908 22.4932 53.648 25.3162 51.6135 30.7393C49.5789 36.1624 52.123 42.132 57.2959 44.0727Z" fill="#FF8D4C" fill-opacity="0.38"/>
<path d="M79.7754 52.5053C84.9483 54.446 90.7911 51.6229 92.8256 46.1998C94.8602 40.7767 92.3161 34.8072 87.1432 32.8665C81.9703 30.9258 76.1275 33.7488 74.0929 39.1719C72.0584 44.595 74.6025 50.5646 79.7754 52.5053Z" fill="#FF8D4C" fill-opacity="0.38"/>
<path d="M90.7402 74.5414C95.9131 76.4821 101.756 73.659 103.79 68.2359C105.825 62.8128 103.281 56.8433 98.108 54.9026C92.9352 52.9619 87.0924 55.785 85.0578 61.2081C83.0232 66.6312 85.5673 72.6007 90.7402 74.5414Z" fill="#FF8D4C" fill-opacity="0.38"/>
<path d="M78.4333 82.739C76.6769 77.5098 75.2239 73.0666 73.43 67.8234C72.5023 65.0558 71.0876 62.1056 68.8187 60.179C68.4655 59.8673 68.0976 59.5948 67.7149 59.3617C66.8372 58.8532 65.8257 58.4737 64.8516 58.1082C63.8775 57.7428 62.8659 57.3633 61.8181 57.1942C61.3765 57.1181 60.9202 57.0814 60.4492 57.0839C57.4729 57.0426 54.5042 58.3484 51.9476 59.8087C47.1851 62.5922 43.1681 64.9833 38.3681 67.7527C31.5298 71.0568 23.3612 74.489 21.4939 82.8841C21.0773 87.298 22.324 92.2911 26.8046 95.2714C29.3186 96.8867 38.9174 97.8443 48.2088 101.33L48.8832 101.583C58.1746 105.069 66.0493 110.622 68.9906 111.098C74.3259 111.8 78.5639 108.82 81.1387 105.261C85.3062 97.6839 81.4109 89.7257 78.4333 82.739Z" fill="#5A2828" fill-opacity="0.4"/>
</g>
<defs>
<clipPath id="clip0_678_160">
<rect width="96.0365" height="100.682" fill="white" transform="translate(35.3657) rotate(20.5644)"/>
</clipPath>
</defs>
</svg>
