<svg width="17" height="16" viewBox="0 0 17 16" fill="none" xmlns="http://www.w3.org/2000/svg">
<path d="M16.2137 2.22662L6.05984 15.3175C5.98125 15.419 5.88793 15.4994 5.78521 15.5543C5.68249 15.6092 5.57238 15.6375 5.46118 15.6375C5.34998 15.6375 5.23988 15.6092 5.13716 15.5543C5.03443 15.4994 4.94111 15.419 4.86253 15.3175L0.63176 9.86298C0.472987 9.65828 0.383789 9.38065 0.383789 9.09116C0.383789 8.80167 0.472987 8.52404 0.63176 8.31934C0.790532 8.11464 1.00587 7.99965 1.23041 7.99965C1.45495 7.99965 1.67029 8.11464 1.82907 8.31934L5.46118 13.0034L15.0164 0.682978C15.1751 0.478279 15.3905 0.363281 15.615 0.363281C15.8396 0.363281 16.0549 0.478279 16.2137 0.682978C16.3725 0.887677 16.4617 1.16531 16.4617 1.4548C16.4617 1.74429 16.3725 2.02192 16.2137 2.22662Z" fill="#5A2828"/>
</svg>
