<svg width="77" height="16" viewBox="0 0 77 16" fill="none" xmlns="http://www.w3.org/2000/svg">
<path d="M33.9997 8.08301C33.533 8.08301 33.1386 7.9219 32.8163 7.59967C32.4941 7.27745 32.333 6.88301 32.333 6.41634C32.333 5.94967 32.4941 5.55523 32.8163 5.23301C33.1386 4.91079 33.533 4.74967 33.9997 4.74967C34.4663 4.74967 34.8608 4.91079 35.183 5.23301C35.5052 5.55523 35.6663 5.94967 35.6663 6.41634C35.6663 6.88301 35.5052 7.27745 35.183 7.59967C34.8608 7.9219 34.4663 8.08301 33.9997 8.08301ZM36.9997 5.41634C36.533 5.41634 36.1386 5.25523 35.8163 4.93301C35.4941 4.61079 35.333 4.21634 35.333 3.74967C35.333 3.28301 35.4941 2.88856 35.8163 2.56634C36.1386 2.24412 36.533 2.08301 36.9997 2.08301C37.4663 2.08301 37.8608 2.24412 38.183 2.56634C38.5052 2.88856 38.6663 3.28301 38.6663 3.74967C38.6663 4.21634 38.5052 4.61079 38.183 4.93301C37.8608 5.25523 37.4663 5.41634 36.9997 5.41634ZM40.9997 5.41634C40.533 5.41634 40.1386 5.25523 39.8163 4.93301C39.4941 4.61079 39.333 4.21634 39.333 3.74967C39.333 3.28301 39.4941 2.88856 39.8163 2.56634C40.1386 2.24412 40.533 2.08301 40.9997 2.08301C41.4663 2.08301 41.8608 2.24412 42.183 2.56634C42.5052 2.88856 42.6663 3.28301 42.6663 3.74967C42.6663 4.21634 42.5052 4.61079 42.183 4.93301C41.8608 5.25523 41.4663 5.41634 40.9997 5.41634ZM43.9997 8.08301C43.533 8.08301 43.1386 7.9219 42.8163 7.59967C42.4941 7.27745 42.333 6.88301 42.333 6.41634C42.333 5.94967 42.4941 5.55523 42.8163 5.23301C43.1386 4.91079 43.533 4.74967 43.9997 4.74967C44.4663 4.74967 44.8608 4.91079 45.183 5.23301C45.5052 5.55523 45.6663 5.94967 45.6663 6.41634C45.6663 6.88301 45.5052 7.27745 45.183 7.59967C44.8608 7.9219 44.4663 8.08301 43.9997 8.08301ZM35.433 14.7497C34.933 14.7497 34.5135 14.5579 34.1743 14.1743C33.8352 13.7908 33.6659 13.3383 33.6663 12.817C33.6663 12.2392 33.8637 11.7337 34.2583 11.3003C34.653 10.867 35.0446 10.4392 35.433 10.017C35.7552 9.67256 36.033 9.29767 36.2663 8.89234C36.4997 8.48701 36.7775 8.10634 37.0997 7.75034C37.3441 7.46145 37.6275 7.22256 37.9497 7.03367C38.2719 6.84479 38.6219 6.75012 38.9997 6.74967C39.3775 6.74967 39.7275 6.83856 40.0497 7.01634C40.3719 7.19412 40.6552 7.42745 40.8997 7.71634C41.2108 8.0719 41.4859 8.45523 41.725 8.86634C41.9641 9.27745 42.2446 9.66078 42.5663 10.0163C42.9552 10.4386 43.3468 10.8663 43.741 11.2997C44.1352 11.733 44.3326 12.2386 44.333 12.8163C44.333 13.3386 44.1635 13.7915 43.8243 14.175C43.4852 14.5586 43.0659 14.7501 42.5663 14.7497C41.9663 14.7497 41.3719 14.6997 40.783 14.5997C40.1941 14.4997 39.5997 14.4497 38.9997 14.4497C38.3997 14.4497 37.8052 14.4997 37.2163 14.5997C36.6275 14.6997 36.033 14.7497 35.433 14.7497Z" fill="#5A2828"/>
<line x1="45" y1="10.5" x2="77" y2="10.5" stroke="#5A2828"/>
<line x1="4.37114e-08" y1="10.5" x2="33" y2="10.5" stroke="#5A2828"/>
</svg>
