<svg width="291" height="16" viewBox="0 0 291 16" fill="none" xmlns="http://www.w3.org/2000/svg">
<path d="M3.00016 8.08301C2.5335 8.08301 2.13905 7.9219 1.81683 7.59967C1.49461 7.27745 1.3335 6.88301 1.3335 6.41634C1.3335 5.94967 1.49461 5.55523 1.81683 5.23301C2.13905 4.91079 2.5335 4.74967 3.00016 4.74967C3.46683 4.74967 3.86127 4.91079 4.1835 5.23301C4.50572 5.55523 4.66683 5.94967 4.66683 6.41634C4.66683 6.88301 4.50572 7.27745 4.1835 7.59967C3.86127 7.9219 3.46683 8.08301 3.00016 8.08301ZM6.00016 5.41634C5.5335 5.41634 5.13905 5.25523 4.81683 4.93301C4.49461 4.61079 4.3335 4.21634 4.3335 3.74967C4.3335 3.28301 4.49461 2.88856 4.81683 2.56634C5.13905 2.24412 5.5335 2.08301 6.00016 2.08301C6.46683 2.08301 6.86127 2.24412 7.1835 2.56634C7.50572 2.88856 7.66683 3.28301 7.66683 3.74967C7.66683 4.21634 7.50572 4.61079 7.1835 4.93301C6.86127 5.25523 6.46683 5.41634 6.00016 5.41634ZM10.0002 5.41634C9.5335 5.41634 9.13905 5.25523 8.81683 4.93301C8.49461 4.61079 8.3335 4.21634 8.3335 3.74967C8.3335 3.28301 8.49461 2.88856 8.81683 2.56634C9.13905 2.24412 9.5335 2.08301 10.0002 2.08301C10.4668 2.08301 10.8613 2.24412 11.1835 2.56634C11.5057 2.88856 11.6668 3.28301 11.6668 3.74967C11.6668 4.21634 11.5057 4.61079 11.1835 4.93301C10.8613 5.25523 10.4668 5.41634 10.0002 5.41634ZM13.0002 8.08301C12.5335 8.08301 12.1391 7.9219 11.8168 7.59967C11.4946 7.27745 11.3335 6.88301 11.3335 6.41634C11.3335 5.94967 11.4946 5.55523 11.8168 5.23301C12.1391 4.91079 12.5335 4.74967 13.0002 4.74967C13.4668 4.74967 13.8613 4.91079 14.1835 5.23301C14.5057 5.55523 14.6668 5.94967 14.6668 6.41634C14.6668 6.88301 14.5057 7.27745 14.1835 7.59967C13.8613 7.9219 13.4668 8.08301 13.0002 8.08301ZM4.4335 14.7497C3.9335 14.7497 3.51394 14.5579 3.17483 14.1743C2.83572 13.7908 2.66638 13.3383 2.66683 12.817C2.66683 12.2392 2.86416 11.7337 3.25883 11.3003C3.6535 10.867 4.04505 10.4392 4.4335 10.017C4.75572 9.67256 5.0335 9.29767 5.26683 8.89234C5.50016 8.48701 5.77794 8.10634 6.10016 7.75034C6.34461 7.46145 6.62794 7.22256 6.95016 7.03367C7.27238 6.84479 7.62238 6.75012 8.00016 6.74967C8.37794 6.74967 8.72794 6.83856 9.05016 7.01634C9.37238 7.19412 9.65572 7.42745 9.90016 7.71634C10.2113 8.0719 10.4864 8.45523 10.7255 8.86634C10.9646 9.27745 11.2451 9.66078 11.5668 10.0163C11.9557 10.4386 12.3473 10.8663 12.7415 11.2997C13.1357 11.733 13.3331 12.2386 13.3335 12.8163C13.3335 13.3386 13.1639 13.7915 12.8248 14.175C12.4857 14.5586 12.0664 14.7501 11.5668 14.7497C10.9668 14.7497 10.3724 14.6997 9.7835 14.5997C9.19461 14.4997 8.60016 14.4497 8.00016 14.4497C7.40016 14.4497 6.80572 14.4997 6.21683 14.5997C5.62794 14.6997 5.0335 14.7497 4.4335 14.7497Z" fill="#5A2828"/>
<line x1="16.0019" y1="14.5" x2="275.002" y2="15.5" stroke="black"/>
<path d="M278 8.08301C277.533 8.08301 277.139 7.9219 276.817 7.59967C276.495 7.27745 276.333 6.88301 276.333 6.41634C276.333 5.94967 276.495 5.55523 276.817 5.23301C277.139 4.91079 277.533 4.74967 278 4.74967C278.467 4.74967 278.861 4.91079 279.183 5.23301C279.506 5.55523 279.667 5.94967 279.667 6.41634C279.667 6.88301 279.506 7.27745 279.183 7.59967C278.861 7.9219 278.467 8.08301 278 8.08301ZM281 5.41634C280.533 5.41634 280.139 5.25523 279.817 4.93301C279.495 4.61079 279.333 4.21634 279.333 3.74967C279.333 3.28301 279.495 2.88856 279.817 2.56634C280.139 2.24412 280.533 2.08301 281 2.08301C281.467 2.08301 281.861 2.24412 282.183 2.56634C282.506 2.88856 282.667 3.28301 282.667 3.74967C282.667 4.21634 282.506 4.61079 282.183 4.93301C281.861 5.25523 281.467 5.41634 281 5.41634ZM285 5.41634C284.533 5.41634 284.139 5.25523 283.817 4.93301C283.495 4.61079 283.333 4.21634 283.333 3.74967C283.333 3.28301 283.495 2.88856 283.817 2.56634C284.139 2.24412 284.533 2.08301 285 2.08301C285.467 2.08301 285.861 2.24412 286.183 2.56634C286.506 2.88856 286.667 3.28301 286.667 3.74967C286.667 4.21634 286.506 4.61079 286.183 4.93301C285.861 5.25523 285.467 5.41634 285 5.41634ZM288 8.08301C287.533 8.08301 287.139 7.9219 286.817 7.59967C286.495 7.27745 286.333 6.88301 286.333 6.41634C286.333 5.94967 286.495 5.55523 286.817 5.23301C287.139 4.91079 287.533 4.74967 288 4.74967C288.467 4.74967 288.861 4.91079 289.183 5.23301C289.506 5.55523 289.667 5.94967 289.667 6.41634C289.667 6.88301 289.506 7.27745 289.183 7.59967C288.861 7.9219 288.467 8.08301 288 8.08301ZM279.433 14.7497C278.933 14.7497 278.514 14.5579 278.175 14.1743C277.836 13.7908 277.666 13.3383 277.667 12.817C277.667 12.2392 277.864 11.7337 278.259 11.3003C278.653 10.867 279.045 10.4392 279.433 10.017C279.756 9.67256 280.033 9.29767 280.267 8.89234C280.5 8.48701 280.778 8.10634 281.1 7.75034C281.345 7.46145 281.628 7.22256 281.95 7.03367C282.272 6.84479 282.622 6.75012 283 6.74967C283.378 6.74967 283.728 6.83856 284.05 7.01634C284.372 7.19412 284.656 7.42745 284.9 7.71634C285.211 8.0719 285.486 8.45523 285.725 8.86634C285.965 9.27745 286.245 9.66078 286.567 10.0163C286.956 10.4386 287.347 10.8663 287.741 11.2997C288.136 11.733 288.333 12.2386 288.333 12.8163C288.333 13.3386 288.164 13.7915 287.825 14.175C287.486 14.5586 287.066 14.7501 286.567 14.7497C285.967 14.7497 285.372 14.6997 284.783 14.5997C284.195 14.4997 283.6 14.4497 283 14.4497C282.4 14.4497 281.806 14.4997 281.217 14.5997C280.628 14.6997 280.033 14.7497 279.433 14.7497Z" fill="#5A2828"/>
</svg>
