<svg width="78" height="76" viewBox="0 0 78 76" fill="none" xmlns="http://www.w3.org/2000/svg">
<path d="M18.6035 37.9304H21.4656M1.43066 46.5182L11.4482 40.793M1.43066 32.2053L12.8792 35.0679M21.4084 15.1158L36.8353 10.7933C37.0627 10.7216 37.3053 10.7131 37.5372 10.7685C37.7691 10.824 37.9815 10.9414 38.1519 11.1082C38.3318 11.266 38.4683 11.4672 38.5484 11.6927C38.6286 11.9181 38.6497 12.1604 38.6099 12.3963L35.4615 28.4553C35.2898 28.026 35.118 27.5679 34.9749 27.1099C34.0632 23.7852 32.1308 20.8306 29.4501 18.6632C26.7695 16.4958 23.4761 15.2249 20.0346 15.0299C16.5931 15.2249 13.2996 16.4958 10.619 18.6632C7.93839 20.8306 6.00589 23.7852 5.0942 27.1099C4.9511 27.5966 4.77937 28.026 4.60764 28.484L1.45929 12.3963C1.41941 12.1604 1.44056 11.9181 1.52071 11.6927C1.60087 11.4672 1.73737 11.266 1.91723 11.1082C2.08761 10.9414 2.30008 10.824 2.53196 10.7685C2.76383 10.7131 3.00642 10.7216 3.23381 10.7933L18.6607 15.1158M24.3278 46.0315C21.5024 46.6806 18.5667 46.6806 15.7414 46.0315M38.6385 46.5182L28.621 40.793M38.6385 32.2053L27.1899 35.0679" stroke="#CF550F" stroke-linecap="round" stroke-linejoin="round"/>
<path d="M65.829 40.0772V45.8024C65.829 46.5616 66.1305 47.2897 66.6673 47.8265C67.2041 48.3633 67.932 48.6649 68.6911 48.6649H70.1222M70.1222 48.6649C71.6404 48.6649 73.0964 48.0618 74.1699 46.9881C75.2434 45.9144 75.8465 44.4582 75.8465 42.9398V34.3521C75.8465 33.5929 75.5449 32.8648 75.0082 32.3279C74.4714 31.7911 73.7434 31.4895 72.9843 31.4895H68.6911C67.7854 31.4887 66.8927 31.2728 66.0866 30.8598C63.3539 29.4335 60.3247 28.6687 57.2426 28.627C54.1411 28.6597 51.0912 29.4247 48.3413 30.8598C47.55 31.2575 46.6795 31.4727 45.794 31.4895H41.5008C40.7417 31.4895 40.0137 31.7911 39.477 32.3279C38.9402 32.8648 38.6387 33.5929 38.6387 34.3521V42.9398C38.6387 44.4582 39.2418 45.9144 40.3153 46.9881C41.3888 48.0618 42.8448 48.6649 44.363 48.6649M70.1222 48.6649L69.2349 53.1592C68.6892 55.9392 67.1948 58.4432 65.0074 60.2432C62.8199 62.0432 60.0752 63.0274 57.2426 63.0274C54.4099 63.0274 51.6652 62.0432 49.4778 60.2432C47.2903 58.4432 45.796 55.9392 45.2502 53.1592L44.363 48.6649M44.363 48.6649H45.794C46.5531 48.6649 47.2811 48.3633 47.8179 47.8265C48.3546 47.2897 48.6562 46.5616 48.6562 45.8024V40.0772M55.8115 54.3901H58.6736" stroke="#CF550F" stroke-linecap="round" stroke-linejoin="round"/>
<g clip-path="url(#clip0_802_1967)">
<path d="M46.5175 12.3054C47.663 12.9268 49.1116 12.4717 49.7532 11.2887C50.3947 10.1058 49.9862 8.64312 48.8407 8.02168C47.6952 7.40025 46.2465 7.85543 45.605 9.03835C44.9634 10.2213 45.372 11.684 46.5175 12.3054Z" fill="#FF8D4C"/>
<path d="M52.1093 10.905C53.2548 11.5265 54.7034 11.0713 55.345 9.88836C55.9865 8.70544 55.578 7.24273 54.4325 6.62129C53.287 5.99986 51.8383 6.45504 51.1968 7.63796C50.5552 8.82088 50.9638 10.2836 52.1093 10.905Z" fill="#FF8D4C"/>
<path d="M57.0868 13.6042C58.2323 14.2257 59.681 13.7705 60.3225 12.5876C60.9641 11.4047 60.5555 9.94194 59.41 9.32051C58.2645 8.69908 56.8159 9.15426 56.1743 10.3372C55.5328 11.5201 55.9413 12.9828 57.0868 13.6042Z" fill="#FF8D4C"/>
<path d="M58.9618 19.0574C60.1073 19.6788 61.556 19.2236 62.1975 18.0407C62.8391 16.8578 62.4305 15.3951 61.285 14.7736C60.1395 14.1522 58.6909 14.6074 58.0493 15.7903C57.4078 16.9732 57.8163 18.4359 58.9618 19.0574Z" fill="#FF8D4C"/>
<path d="M55.8409 20.5354C55.593 19.2699 55.3916 18.196 55.1355 16.926C55.0048 16.2564 54.7662 15.5282 54.2969 15.0075C54.2243 14.9237 54.1469 14.8485 54.065 14.7819C53.8762 14.6351 53.6522 14.5136 53.4364 14.3965C53.2207 14.2795 52.9967 14.158 52.7578 14.0838C52.6572 14.0514 52.552 14.0276 52.4422 14.0124C51.7499 13.9029 51.0178 14.1045 50.377 14.3556C49.1813 14.838 48.1714 15.2548 46.9674 15.7326C45.2719 16.2653 43.2624 16.783 42.5681 18.6572C42.3347 19.6616 42.4711 20.8555 43.4232 21.6935C43.9591 22.1506 46.1663 22.6938 48.2238 23.81L48.3731 23.891C50.4306 25.0072 52.0942 26.5528 52.7649 26.7614C53.9865 27.1026 55.066 26.5572 55.7759 25.8225C56.981 24.2142 56.319 22.2473 55.8409 20.5354Z" fill="#5A2828"/>
</g>
<g clip-path="url(#clip1_802_1967)">
<path d="M36.0538 63.3259C35.0097 62.546 33.5106 62.7877 32.7054 63.8659C31.9002 64.9441 32.0938 66.4504 33.1379 67.2303C34.1819 68.0103 35.6811 67.7685 36.4863 66.6904C37.2915 65.6122 37.0978 64.1059 36.0538 63.3259Z" fill="#FF8D4C"/>
<path d="M30.3174 63.908C29.2734 63.128 27.7743 63.3698 26.9691 64.4479C26.1639 65.5261 26.3575 67.0324 27.4016 67.8124C28.4456 68.5923 29.9447 68.3506 30.7499 67.2724C31.5551 66.1942 31.3615 64.6879 30.3174 63.908Z" fill="#FF8D4C"/>
<path d="M25.7803 60.5173C24.7363 59.7374 23.2371 59.9791 22.4319 61.0573C21.6267 62.1355 21.8204 63.6418 22.8644 64.4217C23.9085 65.2017 25.4076 64.96 26.2128 63.8818C27.018 62.8036 26.8244 61.2973 25.7803 60.5173Z" fill="#FF8D4C"/>
<path d="M24.711 54.8513C23.6669 54.0714 22.1678 54.3131 21.3626 55.3913C20.5574 56.4695 20.751 57.9758 21.7951 58.7557C22.8392 59.5357 24.3383 59.2939 25.1435 58.2158C25.9487 57.1376 25.7551 55.6313 24.711 54.8513Z" fill="#FF8D4C"/>
<path d="M28.0119 53.8392C28.0749 55.1271 28.1196 56.2189 28.1902 57.5125C28.2231 58.194 28.3543 58.949 28.7437 59.5318C28.8035 59.6252 28.8692 59.7108 28.9407 59.7885C29.1064 59.961 29.3106 60.1135 29.5072 60.2604C29.7038 60.4072 29.908 60.5598 30.1337 60.6676C30.2286 60.7141 30.3293 60.7528 30.4358 60.7837C31.1051 60.9917 31.8586 60.8977 32.5289 60.7415C33.7816 60.4365 34.841 60.1695 36.1012 59.8701C37.8558 59.5872 39.9188 59.3644 40.8758 57.6097C41.2514 56.6494 41.2884 55.4483 40.4669 54.4819C40.0024 53.9524 37.8964 53.0969 36.0211 51.6959L35.885 51.5942C34.0097 50.1933 32.586 48.4242 31.9524 48.1211C30.7927 47.6076 29.6458 47.9917 28.8375 48.6166C27.4134 50.0345 27.7853 52.0762 28.0119 53.8392Z" fill="#5A2828"/>
</g>
<defs>
<clipPath id="clip0_802_1967">
<rect width="22.6527" height="23.3912" fill="white" transform="matrix(0.878985 0.47685 -0.476739 0.879045 48.3594 0)"/>
</clipPath>
<clipPath id="clip1_802_1967">
<rect width="22.6531" height="23.3907" fill="white" transform="matrix(-0.801135 -0.598483 0.598368 -0.801222 32.458 75.2383)"/>
</clipPath>
</defs>
</svg>
