<svg width="114" height="111" viewBox="0 0 114 111" fill="none" xmlns="http://www.w3.org/2000/svg">
<rect x="1.5" y="1.5" width="111" height="108" rx="42.5" fill="white" stroke="#D0530C" stroke-width="3"/>
<path d="M40.6035 52.9304H43.4656M23.4307 61.5182L33.4482 55.793M23.4307 47.2053L34.8792 50.0679M43.4084 30.1158L58.8353 25.7933C59.0627 25.7216 59.3053 25.7131 59.5372 25.7685C59.7691 25.824 59.9815 25.9414 60.1519 26.1082C60.3318 26.266 60.4683 26.4672 60.5484 26.6927C60.6286 26.9181 60.6497 27.1604 60.6099 27.3963L57.4615 43.4553C57.2898 43.026 57.118 42.5679 56.9749 42.1099C56.0632 38.7852 54.1308 35.8306 51.4501 33.6632C48.7695 31.4958 45.4761 30.2249 42.0346 30.0299C38.5931 30.2249 35.2996 31.4958 32.619 33.6632C29.9384 35.8306 28.0059 38.7852 27.0942 42.1099C26.9511 42.5966 26.7794 43.026 26.6076 43.484L23.4593 27.3963C23.4194 27.1604 23.4406 26.9181 23.5207 26.6927C23.6009 26.4672 23.7374 26.266 23.9172 26.1082C24.0876 25.9414 24.3001 25.824 24.532 25.7685C24.7638 25.7131 25.0064 25.7216 25.2338 25.7933L40.6607 30.1158M46.3278 61.0315C43.5024 61.6806 40.5667 61.6806 37.7414 61.0315M60.6385 61.5182L50.621 55.793M60.6385 47.2053L49.1899 50.0679" stroke="#CF550F" stroke-linecap="round" stroke-linejoin="round"/>
<path d="M87.829 55.0772V60.8024C87.829 61.5616 88.1305 62.2897 88.6673 62.8265C89.2041 63.3633 89.932 63.6649 90.6911 63.6649H92.1222M92.1222 63.6649C93.6404 63.6649 95.0964 63.0618 96.1699 61.9881C97.2434 60.9144 97.8465 59.4582 97.8465 57.9398V49.3521C97.8465 48.5929 97.5449 47.8648 97.0082 47.3279C96.4714 46.7911 95.7434 46.4895 94.9843 46.4895H90.6911C89.7854 46.4887 88.8927 46.2728 88.0866 45.8598C85.3539 44.4335 82.3247 43.6687 79.2426 43.627C76.1411 43.6597 73.0912 44.4247 70.3413 45.8598C69.55 46.2575 68.6795 46.4727 67.794 46.4895H63.5008C62.7417 46.4895 62.0137 46.7911 61.477 47.3279C60.9402 47.8648 60.6387 48.5929 60.6387 49.3521V57.9398C60.6387 59.4582 61.2418 60.9144 62.3153 61.9881C63.3888 63.0618 64.8448 63.6649 66.363 63.6649M92.1222 63.6649L91.2349 68.1592C90.6892 70.9392 89.1948 73.4432 87.0074 75.2432C84.8199 77.0432 82.0752 78.0274 79.2426 78.0274C76.4099 78.0274 73.6652 77.0432 71.4778 75.2432C69.2903 73.4432 67.796 70.9392 67.2502 68.1592L66.363 63.6649M66.363 63.6649H67.794C68.5531 63.6649 69.2811 63.3633 69.8179 62.8265C70.3546 62.2897 70.6562 61.5616 70.6562 60.8024V55.0772M77.8115 69.3901H80.6736" stroke="#CF550F" stroke-linecap="round" stroke-linejoin="round"/>
<g clip-path="url(#clip0_874_1989)">
<path d="M68.5175 27.3054C69.663 27.9268 71.1116 27.4717 71.7532 26.2887C72.3947 25.1058 71.9862 23.6431 70.8407 23.0217C69.6952 22.4003 68.2465 22.8554 67.605 24.0383C66.9634 25.2213 67.372 26.684 68.5175 27.3054Z" fill="#FF8D4C"/>
<path d="M74.1093 25.905C75.2548 26.5265 76.7034 26.0713 77.345 24.8884C77.9865 23.7054 77.578 22.2427 76.4325 21.6213C75.287 20.9999 73.8383 21.455 73.1968 22.638C72.5552 23.8209 72.9638 25.2836 74.1093 25.905Z" fill="#FF8D4C"/>
<path d="M79.0868 28.6042C80.2323 29.2257 81.681 28.7705 82.3225 27.5876C82.9641 26.4047 82.5555 24.9419 81.41 24.3205C80.2645 23.6991 78.8159 24.1543 78.1743 25.3372C77.5328 26.5201 77.9413 27.9828 79.0868 28.6042Z" fill="#FF8D4C"/>
<path d="M80.9618 34.0574C82.1073 34.6788 83.556 34.2236 84.1975 33.0407C84.8391 31.8578 84.4305 30.3951 83.285 29.7736C82.1395 29.1522 80.6909 29.6074 80.0493 30.7903C79.4078 31.9732 79.8163 33.4359 80.9618 34.0574Z" fill="#FF8D4C"/>
<path d="M77.8409 35.5354C77.593 34.2699 77.3916 33.196 77.1355 31.926C77.0048 31.2564 76.7662 30.5282 76.2969 30.0075C76.2243 29.9237 76.1469 29.8485 76.065 29.7819C75.8762 29.6351 75.6522 29.5136 75.4364 29.3965C75.2207 29.2795 74.9967 29.158 74.7578 29.0838C74.6572 29.0514 74.552 29.0276 74.4422 29.0124C73.7499 28.9029 73.0178 29.1045 72.377 29.3556C71.1813 29.838 70.1714 30.2548 68.9674 30.7326C67.2719 31.2653 65.2624 31.783 64.5681 33.6572C64.3347 34.6616 64.4711 35.8555 65.4232 36.6935C65.9591 37.1506 68.1663 37.6938 70.2238 38.81L70.3731 38.891C72.4306 40.0072 74.0942 41.5528 74.7649 41.7614C75.9865 42.1026 77.066 41.5572 77.7759 40.8225C78.981 39.2142 78.319 37.2473 77.8409 35.5354Z" fill="#5A2828"/>
</g>
<g clip-path="url(#clip1_874_1989)">
<path d="M58.0538 78.3259C57.0097 77.546 55.5106 77.7877 54.7054 78.8659C53.9002 79.9441 54.0938 81.4504 55.1379 82.2303C56.1819 83.0103 57.6811 82.7685 58.4863 81.6904C59.2915 80.6122 59.0978 79.1059 58.0538 78.3259Z" fill="#FF8D4C"/>
<path d="M52.3174 78.908C51.2734 78.128 49.7743 78.3698 48.9691 79.4479C48.1639 80.5261 48.3575 82.0324 49.4016 82.8124C50.4456 83.5923 51.9447 83.3506 52.7499 82.2724C53.5551 81.1942 53.3615 79.6879 52.3174 78.908Z" fill="#FF8D4C"/>
<path d="M47.7803 75.5173C46.7363 74.7374 45.2371 74.9791 44.4319 76.0573C43.6267 77.1355 43.8204 78.6418 44.8644 79.4217C45.9085 80.2017 47.4076 79.96 48.2128 78.8818C49.018 77.8036 48.8244 76.2973 47.7803 75.5173Z" fill="#FF8D4C"/>
<path d="M46.711 69.8513C45.6669 69.0714 44.1678 69.3131 43.3626 70.3913C42.5574 71.4695 42.751 72.9758 43.7951 73.7557C44.8392 74.5357 46.3383 74.2939 47.1435 73.2158C47.9487 72.1376 47.7551 70.6313 46.711 69.8513Z" fill="#FF8D4C"/>
<path d="M50.0119 68.8392C50.0749 70.1271 50.1196 71.2189 50.1902 72.5125C50.2231 73.194 50.3543 73.949 50.7437 74.5318C50.8035 74.6252 50.8692 74.7108 50.9407 74.7885C51.1064 74.961 51.3106 75.1135 51.5072 75.2604C51.7038 75.4072 51.908 75.5598 52.1337 75.6676C52.2286 75.7141 52.3293 75.7528 52.4358 75.7837C53.1051 75.9917 53.8586 75.8977 54.5289 75.7415C55.7816 75.4365 56.841 75.1695 58.1012 74.8701C59.8558 74.5872 61.9188 74.3644 62.8758 72.6097C63.2514 71.6494 63.2884 70.4483 62.4669 69.4819C62.0024 68.9524 59.8964 68.0969 58.0211 66.6959L57.885 66.5942C56.0097 65.1933 54.586 63.4242 53.9524 63.1211C52.7927 62.6076 51.6458 62.9917 50.8375 63.6166C49.4134 65.0345 49.7853 67.0762 50.0119 68.8392Z" fill="#5A2828"/>
</g>
<defs>
<clipPath id="clip0_874_1989">
<rect width="22.6527" height="23.3912" fill="white" transform="matrix(0.878985 0.47685 -0.476739 0.879045 70.3594 15)"/>
</clipPath>
<clipPath id="clip1_874_1989">
<rect width="22.6531" height="23.3907" fill="white" transform="matrix(-0.801135 -0.598483 0.598368 -0.801222 54.458 90.2383)"/>
</clipPath>
</defs>
</svg>
