<svg width="49" height="50" viewBox="0 0 49 50" fill="none" xmlns="http://www.w3.org/2000/svg">
<path d="M48.875 25.083C48.875 21.882 48.2445 18.7124 47.0196 15.7551C45.7946 12.7978 43.9992 10.1107 41.7357 7.84728C39.4723 5.58385 36.7852 3.7884 33.8279 2.56344C30.8706 1.33849 27.701 0.708008 24.5 0.708008C21.299 0.708008 18.1294 1.33849 15.1721 2.56344C12.2148 3.7884 9.5277 5.58385 7.26427 7.84728C5.00084 10.1107 3.20539 12.7978 1.98044 15.7551C0.755478 18.7124 0.125 21.882 0.125 25.083C0.125 31.5477 2.69307 37.7475 7.26427 42.3187C11.8355 46.8899 18.0353 49.458 24.5 49.458C30.9647 49.458 37.1645 46.8899 41.7357 42.3187C46.3069 37.7475 48.875 31.5477 48.875 25.083ZM4.1875 25.083C4.1875 19.6958 6.32756 14.5292 10.1369 10.7199C13.9462 6.91057 19.1128 4.77051 24.5 4.77051C29.8872 4.77051 35.0538 6.91057 38.8631 10.7199C42.6724 14.5292 44.8125 19.6958 44.8125 25.083C44.8125 30.4702 42.6724 35.6368 38.8631 39.4461C35.0538 43.2554 29.8872 45.3955 24.5 45.3955C19.1128 45.3955 13.9462 43.2554 10.1369 39.4461C6.32756 35.6368 4.1875 30.4702 4.1875 25.083ZM20.4375 20.0049C20.4375 20.405 20.3587 20.8012 20.2056 21.1709C20.0525 21.5405 19.828 21.8764 19.5451 22.1593C19.2622 22.4423 18.9263 22.6667 18.5566 22.8198C18.1869 22.9729 17.7907 23.0518 17.3906 23.0518C16.9905 23.0518 16.5943 22.9729 16.2246 22.8198C15.855 22.6667 15.5191 22.4423 15.2362 22.1593C14.9532 21.8764 14.7288 21.5405 14.5757 21.1709C14.4226 20.8012 14.3437 20.405 14.3438 20.0049C14.3438 19.1968 14.6648 18.4218 15.2362 17.8504C15.8076 17.279 16.5825 16.958 17.3906 16.958C18.1987 16.958 18.9737 17.279 19.5451 17.8504C20.1165 18.4218 20.4375 19.1968 20.4375 20.0049ZM34.6562 20.0049C34.6562 20.813 34.3352 21.5879 33.7638 22.1593C33.1924 22.7307 32.4175 23.0518 31.6094 23.0518C30.8013 23.0518 30.0263 22.7307 29.4549 22.1593C28.8835 21.5879 28.5625 20.813 28.5625 20.0049C28.5625 19.1968 28.8835 18.4218 29.4549 17.8504C30.0263 17.279 30.8013 16.958 31.6094 16.958C32.4175 16.958 33.1924 17.279 33.7638 17.8504C34.3352 18.4218 34.6562 19.1968 34.6562 20.0049ZM16.9112 36.5474C20.6691 32.0949 28.3269 32.0949 32.0888 36.5474C32.2566 36.7633 32.4664 36.9432 32.7054 37.0761C32.9445 37.209 33.2079 37.2922 33.4799 37.3209C33.7519 37.3495 34.0269 37.3229 34.2884 37.2426C34.5499 37.1624 34.7925 37.0301 35.0016 36.8538C35.2107 36.6776 35.3821 36.4609 35.5055 36.2167C35.6288 35.9726 35.7016 35.7061 35.7194 35.4331C35.7372 35.1602 35.6997 34.8865 35.6092 34.6284C35.5187 34.3703 35.3769 34.1331 35.1925 33.9311C29.8097 27.553 19.1863 27.553 13.8075 33.9311C13.6231 34.1331 13.4813 34.3703 13.3908 34.6284C13.3003 34.8865 13.2628 35.1602 13.2806 35.4331C13.2984 35.7061 13.3712 35.9726 13.4945 36.2167C13.6179 36.4609 13.7893 36.6776 13.9984 36.8538C14.2075 37.0301 14.4501 37.1624 14.7116 37.2426C14.9731 37.3229 15.2481 37.3495 15.5201 37.3209C15.7921 37.2922 16.0555 37.209 16.2946 37.0761C16.5336 36.9432 16.7434 36.7633 16.9112 36.5474Z" fill="#F24E1E"/>
</svg>
