<svg width="51" height="52" viewBox="0 0 51 52" fill="none" xmlns="http://www.w3.org/2000/svg">
<path d="M18.2143 24.2616C19.1804 24.2616 20.107 23.8778 20.7902 23.1946C21.4733 22.5114 21.8571 21.5849 21.8571 20.6187C21.8571 19.6526 21.4733 18.726 20.7902 18.0428C20.107 17.3597 19.1804 16.9759 18.2143 16.9759C17.2481 16.9759 16.3216 17.3597 15.6384 18.0428C14.9552 18.726 14.5714 19.6526 14.5714 20.6187C14.5714 21.5849 14.9552 22.5114 15.6384 23.1946C16.3216 23.8778 17.2481 24.2616 18.2143 24.2616ZM36.4286 20.6187C36.4286 21.5849 36.0448 22.5114 35.3616 23.1946C34.6784 23.8778 33.7519 24.2616 32.7857 24.2616C31.8196 24.2616 30.893 23.8778 30.2098 23.1946C29.5267 22.5114 29.1429 21.5849 29.1429 20.6187C29.1429 19.6526 29.5267 18.726 30.2098 18.0428C30.893 17.3597 31.8196 16.9759 32.7857 16.9759C33.7519 16.9759 34.6784 17.3597 35.3616 18.0428C36.0448 18.726 36.4286 19.6526 36.4286 20.6187ZM13.7573 31.7404C14.187 31.5255 14.6843 31.4891 15.1408 31.6392C15.5973 31.7893 15.976 32.1137 16.1943 32.5418L16.1998 32.5527L16.2617 32.6584C16.3255 32.7622 16.4311 32.9243 16.5841 33.1301C16.8919 33.5399 17.3855 34.1064 18.0995 34.6783C19.5075 35.804 21.8444 37.0116 25.5 37.0116C29.1556 37.0116 31.4925 35.804 32.9005 34.6801C33.6163 34.1064 34.1099 33.5399 34.4159 33.1301C34.5552 32.9453 34.6835 32.7525 34.8002 32.5527L34.8075 32.54C35.0272 32.1121 35.4073 31.7885 35.8648 31.6398C36.3222 31.4912 36.8199 31.5295 37.2492 31.7464C37.6785 31.9633 38.0046 32.3413 38.1563 32.7978C38.3079 33.2542 38.2729 33.7522 38.0588 34.1829L38.0551 34.1884V34.192L38.0478 34.2029L38.0333 34.2303C37.9767 34.3388 37.9159 34.4451 37.8511 34.549C37.6912 34.8127 37.518 35.068 37.332 35.314C36.7087 36.138 35.9841 36.8803 35.1754 37.5234C33.1682 39.1299 30.0408 40.6544 25.5 40.6544C20.9592 40.6544 17.8318 39.1299 15.8246 37.5216C15.0167 36.8795 14.2928 36.1385 13.6698 35.3158C13.4112 34.9703 13.1763 34.6076 12.9668 34.2303L12.9522 34.2029L12.9467 34.192L12.9449 34.1865L12.9431 34.1829C12.7274 33.751 12.692 33.2511 12.8446 32.7931C12.9973 32.3351 13.3255 31.9565 13.7573 31.7404ZM25.5 0.583008C11.4167 0.583008 0 11.9997 0 26.083C0 40.1663 11.4167 51.583 25.5 51.583C39.5833 51.583 51 40.1663 51 26.083C51 11.9997 39.5833 0.583008 25.5 0.583008ZM3.64286 26.083C3.64286 14.0124 13.4294 4.22586 25.5 4.22586C37.5706 4.22586 47.3571 14.0124 47.3571 26.083C47.3571 38.1536 37.5706 47.9401 25.5 47.9401C13.4294 47.9401 3.64286 38.1536 3.64286 26.083Z" fill="#F24E1E"/>
</svg>
