<svg width="55" height="55" viewBox="0 0 55 55" fill="none" xmlns="http://www.w3.org/2000/svg">
<path d="M19.3748 18.284C19.8273 18.2712 20.2777 18.3492 20.6995 18.5135C21.1213 18.6778 21.5058 18.9251 21.8303 19.2406C22.1549 19.5561 22.4129 19.9334 22.5891 20.3504C22.7652 20.7673 22.856 21.2154 22.856 21.668C22.856 22.1207 22.7652 22.5687 22.5891 22.9856C22.4129 23.4026 22.1549 23.78 21.8303 24.0955C21.5058 24.411 21.1213 24.6582 20.6995 24.8225C20.2777 24.9868 19.8273 25.0649 19.3748 25.0521C18.477 25.0521 17.6159 24.6954 16.981 24.0605C16.3461 23.4256 15.9894 22.5645 15.9894 21.6667C15.9894 20.7688 16.3461 19.9077 16.981 19.2728C17.6159 18.6379 18.477 18.2813 19.3748 18.2813M35.6248 18.2813C36.0773 18.2684 36.5277 18.3465 36.9495 18.5108C37.3713 18.6751 37.7558 18.9223 38.0803 19.2378C38.4049 19.5534 38.6629 19.9307 38.8391 20.3477C39.0152 20.7646 39.106 21.2127 39.106 21.6653C39.106 22.118 39.0152 22.566 38.8391 22.9829C38.6629 23.3999 38.4049 23.7773 38.0803 24.0928C37.7558 24.4083 37.3713 24.6555 36.9495 24.8198C36.5277 24.9841 36.0773 25.0622 35.6248 25.0494C34.7439 25.0245 33.9074 24.657 33.2931 24.0251C32.6788 23.3932 32.3352 22.5466 32.3352 21.6653C32.3352 20.784 32.6788 19.9375 33.2931 19.3056C33.9074 18.6736 34.7439 18.3062 35.6248 18.2813ZM17.3436 35.2083C16.8049 35.2083 16.2882 35.4223 15.9073 35.8033C15.5263 36.1842 15.3123 36.7009 15.3123 37.2396C15.3123 37.7783 15.5263 38.295 15.9073 38.6759C16.2882 39.0568 16.8049 39.2708 17.3436 39.2708H37.6561C38.1948 39.2708 38.7115 39.0568 39.0924 38.6759C39.4733 38.295 39.6873 37.7783 39.6873 37.2396C39.6873 36.7009 39.4733 36.1842 39.0924 35.8033C38.7115 35.4223 38.1948 35.2083 37.6561 35.2083H17.3436ZM0.416504 27.0833C0.416504 12.1252 12.5417 0 27.4998 0C42.458 0 54.5832 12.1252 54.5832 27.0833C54.5832 42.0415 42.458 54.1667 27.4998 54.1667C12.5417 54.1667 0.416504 42.0415 0.416504 27.0833ZM27.4998 4.0625C21.3943 4.0625 15.5389 6.4879 11.2217 10.8051C6.90441 15.1224 4.479 20.9778 4.479 27.0833C4.479 33.1888 6.90441 39.0443 11.2217 43.3615C15.5389 47.6788 21.3943 50.1042 27.4998 50.1042C33.6053 50.1042 39.4608 47.6788 43.778 43.3615C48.0953 39.0443 50.5207 33.1888 50.5207 27.0833C50.5207 20.9778 48.0953 15.1224 43.778 10.8051C39.4608 6.4879 33.6053 4.0625 27.4998 4.0625Z" fill="#F24E1E"/>
</svg>
