<svg width="156" height="49" viewBox="0 0 156 49" fill="none" xmlns="http://www.w3.org/2000/svg">
<path d="M60.64 36L65.664 13.44H68.192L63.2 36H60.64ZM60.544 36L55.52 13.44H58.08L63.072 36H60.544ZM53.92 36V13.44H56.832V36H53.92ZM66.912 36V13.44H69.824V36H66.912ZM77.5473 28.224L82.5713 13.44H85.3233L80.2993 28.224H77.5473ZM77.5473 36V28.224H80.2993V36H77.5473ZM77.5473 28.224L72.4913 13.44H75.4993L80.2993 28.224H77.5473ZM89.933 15.968V13.44H93.197V15.968H89.933ZM89.933 27.328V24.8H93.197V27.328H89.933ZM96.589 21.344V19.424H99.501V21.344H96.589ZM99.501 19.424H96.589C96.589 18.3147 96.2797 17.4613 95.661 16.864C95.0637 16.2667 94.2317 15.968 93.165 15.968V13.44C94.4237 13.44 95.5223 13.696 96.461 14.208C97.421 14.6987 98.1677 15.4027 98.701 16.32C99.2343 17.216 99.501 18.2507 99.501 19.424ZM99.501 21.312C99.501 22.5067 99.2343 23.552 98.701 24.448C98.1677 25.344 97.421 26.048 96.461 26.56C95.5223 27.072 94.4237 27.328 93.165 27.328V24.8C94.2317 24.8 95.0637 24.4907 95.661 23.872C96.2797 23.2533 96.589 22.4 96.589 21.312H99.501ZM88.045 36V13.44H90.957V36H88.045ZM104.021 36V33.472H112.885V36H104.021ZM104.501 26.048V23.456H110.965V26.048H104.501ZM102.389 13.44H105.301V36H102.389V13.44ZM104.341 13.44H112.565V15.968H104.341V13.44ZM113.828 15.968V13.44H127.108V15.968H113.828ZM119.012 36V13.44H121.924V36H119.012ZM127.421 15.968V13.44H140.701V15.968H127.421ZM132.605 36V13.44H135.517V36H132.605ZM147.047 28.224L152.071 13.44H154.823L149.799 28.224H147.047ZM147.047 36V28.224H149.799V36H147.047ZM147.047 28.224L141.991 13.44H144.999L149.799 28.224H147.047Z" fill="#5A2828"/>
<path d="M11.7961 24.7016H13.6109M0.907227 30.2945L7.25908 26.5659M0.907227 20.9729L8.16649 22.8373M13.5746 9.84303L23.3565 7.02792C23.5007 6.98125 23.6545 6.97568 23.8015 7.0118C23.9485 7.04791 24.0833 7.12437 24.1913 7.233C24.3053 7.33578 24.3919 7.46682 24.4427 7.61366C24.4935 7.76051 24.507 7.91826 24.4817 8.07193L22.4854 18.5307C22.3765 18.2511 22.2676 17.9528 22.1769 17.6545C21.5988 15.4891 20.3734 13.5649 18.6737 12.1534C16.974 10.7418 14.8857 9.9141 12.7035 9.7871C10.5213 9.9141 8.43306 10.7418 6.73334 12.1534C5.03362 13.5649 3.80827 15.4891 3.23019 17.6545C3.13945 17.9714 3.03056 18.2511 2.92167 18.5493L0.925375 8.07193C0.900092 7.91826 0.913501 7.76051 0.964325 7.61366C1.01515 7.46682 1.1017 7.33578 1.21575 7.233C1.32378 7.12437 1.4585 7.04791 1.60553 7.0118C1.75256 6.97568 1.90637 6.98125 2.05056 7.02792L11.8324 9.84303M15.4257 29.9776C13.6343 30.4003 11.7728 30.4003 9.9813 29.9776M24.4998 30.2945L18.148 26.5659M24.4998 20.9729L17.2406 22.8373" stroke="#CF550F" stroke-linecap="round" stroke-linejoin="round"/>
<path d="M41.7407 26.0998V29.8284C41.7407 30.3229 41.9319 30.7971 42.2723 31.1467C42.6126 31.4963 43.0742 31.6927 43.5556 31.6927H44.463M44.463 31.6927C45.4256 31.6927 46.3488 31.2999 47.0295 30.6007C47.7102 29.9014 48.0926 28.953 48.0926 27.9641V22.3712C48.0926 21.8767 47.9014 21.4026 47.561 21.0529C47.2207 20.7033 46.7591 20.5069 46.2778 20.5069H43.5556C42.9812 20.5063 42.4152 20.3658 41.9041 20.0967C40.1714 19.1678 38.2506 18.6697 36.2963 18.6426C34.3297 18.6639 32.3958 19.1622 30.6522 20.0967C30.1504 20.3558 29.5985 20.4959 29.037 20.5069H26.3148C25.8335 20.5069 25.3719 20.7033 25.0315 21.0529C24.6912 21.4026 24.5 21.8767 24.5 22.3712V27.9641C24.5 28.953 24.8824 29.9014 25.5631 30.6007C26.2438 31.2999 27.167 31.6927 28.1296 31.6927M44.463 31.6927L43.9004 34.6197C43.5543 36.4302 42.6068 38.0611 41.2198 39.2334C39.8328 40.4056 38.0924 41.0466 36.2963 41.0466C34.5002 41.0466 32.7598 40.4056 31.3728 39.2334C29.9858 38.0611 29.0383 36.4302 28.6922 34.6197L28.1296 31.6927M28.1296 31.6927H29.037C29.5184 31.6927 29.98 31.4963 30.3203 31.1467C30.6606 30.7971 30.8519 30.3229 30.8519 29.8284V26.0998M35.3889 35.4214H37.2037" stroke="#CF550F" stroke-linecap="round" stroke-linejoin="round"/>
<g clip-path="url(#clip0_709_3334)">
<path d="M29.4954 8.01486C30.2217 8.41958 31.1403 8.12314 31.547 7.35274C31.9538 6.58234 31.6948 5.62972 30.9685 5.225C30.2421 4.82028 29.3236 5.11672 28.9168 5.88712C28.51 6.65752 28.769 7.61014 29.4954 8.01486Z" fill="#FF8D4C"/>
<path d="M33.0413 7.10178C33.7676 7.5065 34.6862 7.21006 35.0929 6.43966C35.4997 5.66926 35.2407 4.71663 34.5144 4.31191C33.788 3.90719 32.8695 4.20363 32.4627 4.97404C32.0559 5.74444 32.3149 6.69706 33.0413 7.10178Z" fill="#FF8D4C"/>
<path d="M36.1975 8.86057C36.9238 9.26529 37.8424 8.96885 38.2492 8.19844C38.656 7.42804 38.3969 6.47542 37.6706 6.0707C36.9443 5.66598 36.0257 5.96242 35.6189 6.73282C35.2121 7.50322 35.4712 8.45585 36.1975 8.86057Z" fill="#FF8D4C"/>
<path d="M37.386 12.4113C38.1123 12.8161 39.0309 12.5196 39.4377 11.7492C39.8445 10.9788 39.5854 10.0262 38.8591 9.62148C38.1328 9.21676 37.2142 9.5132 36.8074 10.2836C36.4006 11.054 36.6596 12.0066 37.386 12.4113Z" fill="#FF8D4C"/>
<path d="M35.4073 13.3742C35.2502 12.5501 35.1225 11.8507 34.9601 11.0236C34.8772 10.5874 34.7259 10.1132 34.4284 9.7741C34.3823 9.71953 34.3333 9.67055 34.2813 9.62715C34.1616 9.53155 34.0195 9.4524 33.8828 9.37619C33.746 9.29998 33.6039 9.22084 33.4524 9.17252C33.3887 9.15144 33.322 9.13593 33.2523 9.12601C32.8134 9.05474 32.3492 9.18603 31.9428 9.34957C31.1846 9.66368 30.5443 9.93514 29.7809 10.2463C28.7058 10.5933 27.4316 10.9304 26.9914 12.151C26.8434 12.8052 26.9299 13.5827 27.5336 14.1285C27.8734 14.4262 29.2729 14.78 30.5775 15.5069L30.6722 15.5597C31.9768 16.2866 33.0317 17.2932 33.4569 17.4291C34.2315 17.6513 34.916 17.2961 35.3662 16.8176C36.1303 15.7702 35.7105 14.4892 35.4073 13.3742Z" fill="#5A2828"/>
</g>
<g clip-path="url(#clip1_709_3334)">
<path d="M22.8611 41.2415C22.1991 40.7336 21.2486 40.891 20.738 41.5932C20.2275 42.2954 20.3502 43.2764 21.0123 43.7844C21.6743 44.2923 22.6248 44.1349 23.1354 43.4327C23.6459 42.7305 23.5232 41.7495 22.8611 41.2415Z" fill="#FF8D4C"/>
<path d="M19.2244 41.6204C18.5624 41.1125 17.6119 41.2699 17.1013 41.9721C16.5907 42.6743 16.7135 43.6553 17.3755 44.1633C18.0376 44.6712 18.9881 44.5138 19.4987 43.8116C20.0092 43.1094 19.8864 42.1284 19.2244 41.6204Z" fill="#FF8D4C"/>
<path d="M16.3475 39.4134C15.6855 38.9054 14.7349 39.0629 14.2243 39.7651C13.7138 40.4672 13.8366 41.4483 14.4986 41.9562C15.1606 42.4642 16.1112 42.3067 16.6217 41.6046C17.1323 40.9024 17.0095 39.9214 16.3475 39.4134Z" fill="#FF8D4C"/>
<path d="M15.6693 35.723C15.0072 35.215 14.0567 35.3725 13.5461 36.0746C13.0356 36.7768 13.1583 37.7578 13.8204 38.2658C14.4824 38.7738 15.4329 38.6163 15.9435 37.9141C16.454 37.212 16.3313 36.2309 15.6693 35.723Z" fill="#FF8D4C"/>
<path d="M17.7623 35.0629C17.8022 35.9017 17.8305 36.6127 17.8753 37.4552C17.8962 37.8991 17.9794 38.3908 18.2263 38.7704C18.2642 38.8312 18.3059 38.8869 18.3512 38.9375C18.4563 39.0499 18.5858 39.1492 18.7104 39.2448C18.8351 39.3405 18.9645 39.4398 19.1077 39.5101C19.1678 39.5403 19.2317 39.5656 19.2992 39.5857C19.7236 39.7212 20.2014 39.6599 20.6264 39.5582C21.4207 39.3595 22.0924 39.1857 22.8915 38.9907C24.0041 38.8064 25.3122 38.6613 25.919 37.5185C26.1571 36.8931 26.1806 36.1109 25.6597 35.4815C25.3652 35.1366 24.0298 34.5795 22.8407 33.6671L22.7544 33.6008C21.5653 32.6885 20.6626 31.5363 20.2608 31.3389C19.5255 31.0044 18.7983 31.2546 18.2858 31.6616C17.3828 32.585 17.6186 33.9147 17.7623 35.0629Z" fill="#5A2828"/>
</g>
<defs>
<clipPath id="clip0_709_3334">
<rect width="14.453" height="15.1435" fill="white" transform="matrix(0.873542 0.486748 -0.466926 0.884297 30.6636 0)"/>
</clipPath>
<clipPath id="clip1_709_3334">
<rect width="14.5045" height="15.0909" fill="white" transform="matrix(-0.793363 -0.608749 0.588081 -0.808802 20.5815 49)"/>
</clipPath>
</defs>
</svg>
