<svg width="335" height="18" viewBox="0 0 335 18" fill="none" xmlns="http://www.w3.org/2000/svg">
<path d="M321.187 9.09375C320.692 9.09375 320.272 8.9125 319.93 8.55C319.588 8.1875 319.417 7.74375 319.417 7.21875C319.417 6.69375 319.588 6.25 319.93 5.8875C320.272 5.525 320.692 5.34375 321.187 5.34375C321.683 5.34375 322.102 5.525 322.445 5.8875C322.787 6.25 322.958 6.69375 322.958 7.21875C322.958 7.74375 322.787 8.1875 322.445 8.55C322.102 8.9125 321.683 9.09375 321.187 9.09375ZM324.375 6.09375C323.879 6.09375 323.46 5.9125 323.118 5.55C322.775 5.1875 322.604 4.74375 322.604 4.21875C322.604 3.69375 322.775 3.25 323.118 2.8875C323.46 2.525 323.879 2.34375 324.375 2.34375C324.871 2.34375 325.29 2.525 325.632 2.8875C325.974 3.25 326.146 3.69375 326.146 4.21875C326.146 4.74375 325.974 5.1875 325.632 5.55C325.29 5.9125 324.871 6.09375 324.375 6.09375ZM328.625 6.09375C328.129 6.09375 327.71 5.9125 327.368 5.55C327.025 5.1875 326.854 4.74375 326.854 4.21875C326.854 3.69375 327.025 3.25 327.368 2.8875C327.71 2.525 328.129 2.34375 328.625 2.34375C329.121 2.34375 329.54 2.525 329.882 2.8875C330.224 3.25 330.396 3.69375 330.396 4.21875C330.396 4.74375 330.224 5.1875 329.882 5.55C329.54 5.9125 329.121 6.09375 328.625 6.09375ZM331.812 9.09375C331.317 9.09375 330.897 8.9125 330.555 8.55C330.213 8.1875 330.042 7.74375 330.042 7.21875C330.042 6.69375 330.213 6.25 330.555 5.8875C330.897 5.525 331.317 5.34375 331.812 5.34375C332.308 5.34375 332.727 5.525 333.07 5.8875C333.412 6.25 333.583 6.69375 333.583 7.21875C333.583 7.74375 333.412 8.1875 333.07 8.55C332.727 8.9125 332.308 9.09375 331.812 9.09375ZM322.71 16.5937C322.179 16.5937 321.733 16.378 321.373 15.9465C321.013 15.515 320.833 15.006 320.833 14.4195C320.833 13.7695 321.043 13.2007 321.462 12.7132C321.882 12.2257 322.298 11.7445 322.71 11.2695C323.053 10.882 323.348 10.4602 323.596 10.0042C323.844 9.54825 324.139 9.12 324.481 8.7195C324.741 8.3945 325.042 8.12575 325.384 7.91325C325.727 7.70075 326.098 7.59425 326.5 7.59375C326.901 7.59375 327.273 7.69375 327.615 7.89375C327.958 8.09375 328.259 8.35625 328.519 8.68125C328.849 9.08125 329.141 9.5125 329.396 9.975C329.65 10.4375 329.948 10.8687 330.289 11.2687C330.703 11.7437 331.119 12.225 331.538 12.7125C331.956 13.2 332.166 13.7687 332.167 14.4187C332.167 15.0062 331.986 15.5158 331.626 15.9473C331.266 16.3788 330.82 16.5942 330.289 16.5937C329.652 16.5937 329.02 16.5375 328.395 16.425C327.769 16.3125 327.137 16.2562 326.5 16.2562C325.862 16.2562 325.231 16.3125 324.605 16.425C323.979 16.5375 323.348 16.5937 322.71 16.5937Z" fill="#5A2828"/>
<line x1="249" y1="12.5" x2="322" y2="12.5" stroke="#5A2828"/>
<line x1="12" y1="14.5" x2="74" y2="14.5" stroke="#5A2828"/>
<g clip-path="url(#clip0_709_3313)">
<path d="M3.00016 10.083C2.5335 10.083 2.13905 9.9219 1.81683 9.59967C1.49461 9.27745 1.3335 8.88301 1.3335 8.41634C1.3335 7.94967 1.49461 7.55523 1.81683 7.23301C2.13905 6.91079 2.5335 6.74967 3.00016 6.74967C3.46683 6.74967 3.86127 6.91079 4.1835 7.23301C4.50572 7.55523 4.66683 7.94967 4.66683 8.41634C4.66683 8.88301 4.50572 9.27745 4.1835 9.59967C3.86127 9.9219 3.46683 10.083 3.00016 10.083ZM6.00016 7.41634C5.5335 7.41634 5.13905 7.25523 4.81683 6.93301C4.49461 6.61079 4.3335 6.21634 4.3335 5.74967C4.3335 5.28301 4.49461 4.88856 4.81683 4.56634C5.13905 4.24412 5.5335 4.08301 6.00016 4.08301C6.46683 4.08301 6.86127 4.24412 7.1835 4.56634C7.50572 4.88856 7.66683 5.28301 7.66683 5.74967C7.66683 6.21634 7.50572 6.61079 7.1835 6.93301C6.86127 7.25523 6.46683 7.41634 6.00016 7.41634ZM10.0002 7.41634C9.5335 7.41634 9.13905 7.25523 8.81683 6.93301C8.49461 6.61079 8.3335 6.21634 8.3335 5.74967C8.3335 5.28301 8.49461 4.88856 8.81683 4.56634C9.13905 4.24412 9.5335 4.08301 10.0002 4.08301C10.4668 4.08301 10.8613 4.24412 11.1835 4.56634C11.5057 4.88856 11.6668 5.28301 11.6668 5.74967C11.6668 6.21634 11.5057 6.61079 11.1835 6.93301C10.8613 7.25523 10.4668 7.41634 10.0002 7.41634ZM13.0002 10.083C12.5335 10.083 12.1391 9.9219 11.8168 9.59967C11.4946 9.27745 11.3335 8.88301 11.3335 8.41634C11.3335 7.94967 11.4946 7.55523 11.8168 7.23301C12.1391 6.91079 12.5335 6.74967 13.0002 6.74967C13.4668 6.74967 13.8613 6.91079 14.1835 7.23301C14.5057 7.55523 14.6668 7.94967 14.6668 8.41634C14.6668 8.88301 14.5057 9.27745 14.1835 9.59967C13.8613 9.9219 13.4668 10.083 13.0002 10.083ZM4.4335 16.7497C3.9335 16.7497 3.51394 16.5579 3.17483 16.1743C2.83572 15.7908 2.66639 15.3383 2.66683 14.817C2.66683 14.2392 2.86416 13.7337 3.25883 13.3003C3.6535 12.867 4.04505 12.4392 4.4335 12.017C4.75572 11.6726 5.0335 11.2977 5.26683 10.8923C5.50016 10.487 5.77794 10.1063 6.10016 9.75034C6.34461 9.46145 6.62794 9.22256 6.95016 9.03367C7.27239 8.84478 7.62239 8.75012 8.00016 8.74967C8.37794 8.74967 8.72794 8.83856 9.05016 9.01634C9.37239 9.19412 9.65572 9.42745 9.90016 9.71634C10.2113 10.0719 10.4864 10.4552 10.7255 10.8663C10.9646 11.2775 11.2451 11.6608 11.5668 12.0163C11.9557 12.4386 12.3473 12.8663 12.7415 13.2997C13.1357 13.733 13.3331 14.2386 13.3335 14.8163C13.3335 15.3386 13.1639 15.7915 12.8248 16.175C12.4857 16.5586 12.0664 16.7501 11.5668 16.7497C10.9668 16.7497 10.3724 16.6997 9.7835 16.5997C9.19461 16.4997 8.60016 16.4497 8.00016 16.4497C7.40016 16.4497 6.80572 16.4997 6.21683 16.5997C5.62794 16.6997 5.0335 16.7497 4.4335 16.7497Z" fill="#5A2828"/>
<rect x="14" y="15" width="67" height="2" fill="#D9D9D9"/>
</g>
<defs>
<clipPath id="clip0_709_3313">
<rect width="16" height="16" fill="white" transform="translate(0 2)"/>
</clipPath>
</defs>
</svg>
