<svg width="81" height="16" viewBox="0 0 81 16" fill="none" xmlns="http://www.w3.org/2000/svg">
<line x1="4.37114e-08" y1="15.5" x2="33" y2="15.5" stroke="#5A2828"/>
<path d="M36.0002 8.08301C35.5335 8.08301 35.1391 7.9219 34.8168 7.59967C34.4946 7.27745 34.3335 6.88301 34.3335 6.41634C34.3335 5.94967 34.4946 5.55523 34.8168 5.23301C35.1391 4.91079 35.5335 4.74967 36.0002 4.74967C36.4668 4.74967 36.8613 4.91079 37.1835 5.23301C37.5057 5.55523 37.6668 5.94967 37.6668 6.41634C37.6668 6.88301 37.5057 7.27745 37.1835 7.59967C36.8613 7.9219 36.4668 8.08301 36.0002 8.08301ZM39.0002 5.41634C38.5335 5.41634 38.1391 5.25523 37.8168 4.93301C37.4946 4.61079 37.3335 4.21634 37.3335 3.74967C37.3335 3.28301 37.4946 2.88856 37.8168 2.56634C38.1391 2.24412 38.5335 2.08301 39.0002 2.08301C39.4668 2.08301 39.8613 2.24412 40.1835 2.56634C40.5057 2.88856 40.6668 3.28301 40.6668 3.74967C40.6668 4.21634 40.5057 4.61079 40.1835 4.93301C39.8613 5.25523 39.4668 5.41634 39.0002 5.41634ZM43.0002 5.41634C42.5335 5.41634 42.1391 5.25523 41.8168 4.93301C41.4946 4.61079 41.3335 4.21634 41.3335 3.74967C41.3335 3.28301 41.4946 2.88856 41.8168 2.56634C42.1391 2.24412 42.5335 2.08301 43.0002 2.08301C43.4668 2.08301 43.8613 2.24412 44.1835 2.56634C44.5057 2.88856 44.6668 3.28301 44.6668 3.74967C44.6668 4.21634 44.5057 4.61079 44.1835 4.93301C43.8613 5.25523 43.4668 5.41634 43.0002 5.41634ZM46.0002 8.08301C45.5335 8.08301 45.1391 7.9219 44.8168 7.59967C44.4946 7.27745 44.3335 6.88301 44.3335 6.41634C44.3335 5.94967 44.4946 5.55523 44.8168 5.23301C45.1391 4.91079 45.5335 4.74967 46.0002 4.74967C46.4668 4.74967 46.8613 4.91079 47.1835 5.23301C47.5057 5.55523 47.6668 5.94967 47.6668 6.41634C47.6668 6.88301 47.5057 7.27745 47.1835 7.59967C46.8613 7.9219 46.4668 8.08301 46.0002 8.08301ZM37.4335 14.7497C36.9335 14.7497 36.5139 14.5579 36.1748 14.1743C35.8357 13.7908 35.6664 13.3383 35.6668 12.817C35.6668 12.2392 35.8642 11.7337 36.2588 11.3003C36.6535 10.867 37.0451 10.4392 37.4335 10.017C37.7557 9.67256 38.0335 9.29767 38.2668 8.89234C38.5002 8.48701 38.7779 8.10634 39.1002 7.75034C39.3446 7.46145 39.6279 7.22256 39.9502 7.03367C40.2724 6.84479 40.6224 6.75012 41.0002 6.74967C41.3779 6.74967 41.7279 6.83856 42.0502 7.01634C42.3724 7.19412 42.6557 7.42745 42.9002 7.71634C43.2113 8.0719 43.4864 8.45523 43.7255 8.86634C43.9646 9.27745 44.2451 9.66078 44.5668 10.0163C44.9557 10.4386 45.3473 10.8663 45.7415 11.2997C46.1357 11.733 46.3331 12.2386 46.3335 12.8163C46.3335 13.3386 46.1639 13.7915 45.8248 14.175C45.4857 14.5586 45.0664 14.7501 44.5668 14.7497C43.9668 14.7497 43.3724 14.6997 42.7835 14.5997C42.1946 14.4997 41.6002 14.4497 41.0002 14.4497C40.4002 14.4497 39.8057 14.4997 39.2168 14.5997C38.6279 14.6997 38.0335 14.7497 37.4335 14.7497Z" fill="#7B2525"/>
<line x1="49" y1="15.5" x2="81" y2="15.5" stroke="#5A2828"/>
</svg>
