<svg width="218" height="72" viewBox="0 0 218 72" fill="none" xmlns="http://www.w3.org/2000/svg">
<path d="M21.6411 36.714C24.1739 36.714 26.3073 34.6569 26.4062 32.1192C26.505 29.5816 24.5319 27.5244 21.9991 27.5244C19.4663 27.5244 17.3329 29.5816 17.2341 32.1192C17.1352 34.6569 19.1083 36.714 21.6411 36.714Z" fill="#5A2828"/>
<path d="M29.4692 29.3859C32.002 29.3859 34.1354 27.3287 34.2343 24.7911C34.3332 22.2535 32.3601 20.1963 29.8273 20.1963C27.2945 20.1963 25.1611 22.2535 25.0622 24.7911C24.9633 27.3287 26.9364 29.3859 29.4692 29.3859Z" fill="#5A2828"/>
<path d="M40.476 29.3859C43.0088 29.3859 45.1422 27.3287 45.2411 24.7911C45.34 22.2535 43.3669 20.1963 40.8341 20.1963C38.3013 20.1963 36.1679 22.2535 36.069 24.7911C35.9702 27.3287 37.9432 29.3859 40.476 29.3859Z" fill="#5A2828"/>
<path d="M49.1567 36.714C51.6895 36.714 53.8229 34.6569 53.9218 32.1192C54.0207 29.5816 52.0476 27.5244 49.5148 27.5244C46.982 27.5244 44.8486 29.5816 44.7497 32.1192C44.6508 34.6569 46.6239 36.714 49.1567 36.714Z" fill="#5A2828"/>
<path d="M44.9902 41.9704C43.4673 40.0957 42.1904 38.4967 40.6492 36.622C39.844 35.6295 38.8004 34.6371 37.5335 34.196C37.3346 34.1224 37.1349 34.0673 36.9346 34.0305C36.4788 33.957 35.9835 33.957 35.5066 33.957C35.0296 33.957 34.5343 33.957 34.0538 34.0489C33.8506 34.0857 33.6467 34.1408 33.442 34.2143C32.1407 34.6554 31.0381 35.6479 30.1373 36.6404C28.4683 38.5151 27.0668 40.1141 25.3795 41.9888C22.8826 44.3964 19.8254 47.0614 20.2303 50.7924C20.6893 52.6671 21.9561 54.5234 24.3384 55.0564C25.6668 55.3321 29.9832 54.2477 34.5326 54.2477L34.8628 54.2477C39.4121 54.2477 43.6448 55.3137 44.9939 55.0564C47.4178 54.5234 48.83 52.6487 49.4343 50.7924C50.149 47.0431 47.2994 44.3781 44.9902 41.9704Z" fill="#562A2A"/>
<path d="M168.641 34.714C171.174 34.714 173.307 32.6569 173.406 30.1192C173.505 27.5816 171.532 25.5244 168.999 25.5244C166.466 25.5244 164.333 27.5816 164.234 30.1192C164.135 32.6569 166.108 34.714 168.641 34.714Z" fill="#5A2828"/>
<path d="M176.469 27.3859C179.002 27.3859 181.135 25.3287 181.234 22.7911C181.333 20.2535 179.36 18.1963 176.827 18.1963C174.294 18.1963 172.161 20.2535 172.062 22.7911C171.963 25.3287 173.936 27.3859 176.469 27.3859Z" fill="#5A2828"/>
<path d="M187.476 27.3859C190.009 27.3859 192.142 25.3287 192.241 22.7911C192.34 20.2535 190.367 18.1963 187.834 18.1963C185.301 18.1963 183.168 20.2535 183.069 22.7911C182.97 25.3287 184.943 27.3859 187.476 27.3859Z" fill="#5A2828"/>
<path d="M196.157 34.714C198.69 34.714 200.823 32.6569 200.922 30.1192C201.021 27.5816 199.048 25.5244 196.515 25.5244C193.982 25.5244 191.849 27.5816 191.75 30.1192C191.651 32.6569 193.624 34.714 196.157 34.714Z" fill="#5A2828"/>
<path d="M191.99 39.9704C190.467 38.0957 189.19 36.4967 187.649 34.622C186.844 33.6295 185.8 32.6371 184.533 32.196C184.335 32.1224 184.135 32.0673 183.935 32.0305C183.479 31.957 182.984 31.957 182.507 31.957C182.03 31.957 181.534 31.957 181.054 32.0489C180.851 32.0857 180.647 32.1408 180.442 32.2143C179.141 32.6554 178.038 33.6479 177.137 34.6404C175.468 36.5151 174.067 38.1141 172.38 39.9888C169.883 42.3964 166.825 45.0614 167.23 48.7924C167.689 50.6671 168.956 52.5234 171.338 53.0564C172.667 53.3321 176.983 52.2477 181.533 52.2477L181.863 52.2477C186.412 52.2477 190.645 53.3137 191.994 53.0564C194.418 52.5234 195.83 50.6487 196.434 48.7924C197.149 45.0431 194.299 42.3781 191.99 39.9704Z" fill="#5A2828"/>
<line x1="54" y1="49.5" x2="161" y2="49.5" stroke="black"/>
</svg>
