<svg width="608" height="629" viewBox="0 0 608 629" fill="none" xmlns="http://www.w3.org/2000/svg">
<path fill-rule="evenodd" clip-rule="evenodd" d="M315.347 0.00327448C410.014 -0.456674 501.28 47.5733 559.794 121.992C612.981 189.634 612.324 280.848 603.472 366.439C595.706 441.531 569.849 514.301 513.971 565.064C460.516 613.626 387.453 632.254 315.347 628.189C247.382 624.358 190.07 587.619 137.921 543.865C78.8096 494.27 15.127 442.7 3.37328 366.439C-9.92698 280.145 16.6619 190.838 73.2632 124.356C134.398 52.5478 221.04 0.46147 315.347 0.00327448Z" fill="black"/>
<path fill-rule="evenodd" clip-rule="evenodd" d="M315.347 0.00327448C410.014 -0.456674 501.28 47.5733 559.794 121.992C612.981 189.634 612.324 280.848 603.472 366.439C595.706 441.531 569.849 514.301 513.971 565.064C460.516 613.626 387.453 632.254 315.347 628.189C247.382 624.358 190.07 587.619 137.921 543.865C78.8096 494.27 15.127 442.7 3.37328 366.439C-9.92698 280.145 16.6619 190.838 73.2632 124.356C134.398 52.5478 221.04 0.46147 315.347 0.00327448Z" fill="#FF8D4C"/>
</svg>
