<svg width="35" height="29" viewBox="0 0 35 29" fill="none" xmlns="http://www.w3.org/2000/svg">
<path d="M12.9359 10.9475C14.5669 10.7179 15.7765 9.4871 15.9606 8.0168C16.1475 6.52156 16.5689 0.512761 13.8466 0.894981C6.78504 1.88736 7.28064 11.7421 12.9359 10.9475ZM22.227 10.9475C27.8809 11.7421 28.3765 1.88736 21.3149 0.894401C18.5933 0.512181 19.014 6.52098 19.2002 8.01622C19.385 9.4871 20.596 10.7179 22.227 10.9475ZM10.0351 15.5904C10.0351 14.8086 9.69844 14.0998 9.15594 13.5842C8.26344 12.6179 5.42634 10.6639 4.72984 11.1645C3.27594 12.2119 3.32284 14.79 4.19854 16.6634C4.64864 17.7051 5.73574 18.4377 7.00624 18.4377C8.67854 18.4377 10.0351 17.1628 10.0351 15.5904ZM30.431 11.1645C29.7359 10.6639 26.8988 12.6179 26.0063 13.5842C25.4638 14.0998 25.1264 14.8086 25.1264 15.5904C25.1264 17.1628 26.4844 18.4377 28.1553 18.4377C29.4265 18.4377 30.5143 17.7051 30.9644 16.6634C31.838 14.79 31.8863 12.2119 30.431 11.1645ZM24.7358 20.0251C22.1626 18.962 22.2424 16.9146 21.6572 15.0464C21.1917 13.5564 19.5432 12.4544 17.5811 12.4544C16.671 12.4524 15.7847 12.6951 15.0553 13.146C14.3258 13.597 13.7927 14.2319 13.5358 14.9553C12.9093 16.7429 13.2866 18.8239 10.4817 20.0112C8.20324 20.6266 7.28064 21.5244 7.28064 23.6478C7.28064 25.3727 9.06774 27.2194 11.3742 27.4491C13.9474 27.7704 15.955 27.3505 17.5811 26.5826C19.2072 27.3505 21.2134 27.7699 23.7908 27.4491C26.0959 27.2194 27.8837 25.3797 27.8837 23.6478C27.883 21.478 27.0192 20.6695 24.7358 20.0251ZM21.6999 22.62H19.0322L19.0357 24.94H16.1265L16.1307 22.62H13.2999V20.3H16.1314L16.1272 17.98H19.0364L19.0329 20.3H21.6999V22.62Z" fill="#CF550F"/>
</svg>
