<svg width="40" height="40" viewBox="0 0 40 40" fill="none" xmlns="http://www.w3.org/2000/svg">
<path d="M5.10634 12.5163C6.49302 9.75508 8.6203 7.43386 11.2504 5.81212C13.8805 4.19039 16.9098 3.33204 19.9997 3.33301C24.4913 3.33301 28.2647 4.98468 31.1497 7.67467L26.3713 12.4547C24.643 10.803 22.4463 9.96134 19.9997 9.96134C15.658 9.96134 11.983 12.8947 10.6747 16.833C10.3413 17.833 10.1513 18.8997 10.1513 19.9997C10.1513 21.0997 10.3413 22.1663 10.6747 23.1663C11.9847 27.1063 15.658 30.038 19.9997 30.038C22.2413 30.038 24.1497 29.4463 25.643 28.4463C26.5087 27.8763 27.2499 27.1367 27.8217 26.2722C28.3935 25.4076 28.784 24.4361 28.9697 23.4163H19.9997V16.9697H35.6963C35.893 18.0597 35.9997 19.1963 35.9997 20.378C35.9997 25.4547 34.183 29.728 31.0297 32.628C28.273 35.1747 24.4997 36.6663 19.9997 36.6663C17.8107 36.6672 15.6431 36.2367 13.6206 35.3995C11.5981 34.5622 9.76043 33.3346 8.21261 31.7867C6.66479 30.2389 5.43717 28.4013 4.5999 26.3788C3.76263 24.3563 3.33213 22.1886 3.33301 19.9997C3.33301 17.3097 3.97634 14.7663 5.10634 12.5163Z" fill="#CF550F"/>
</svg>
