<svg width="264" height="18" viewBox="0 0 264 18" fill="none" xmlns="http://www.w3.org/2000/svg">
<path d="M251 10.083C250.533 10.083 250.139 9.9219 249.816 9.59967C249.494 9.27745 249.333 8.88301 249.333 8.41634C249.333 7.94967 249.494 7.55523 249.816 7.23301C250.139 6.91079 250.533 6.74967 251 6.74967C251.466 6.74967 251.861 6.91079 252.183 7.23301C252.505 7.55523 252.666 7.94967 252.666 8.41634C252.666 8.88301 252.505 9.27745 252.183 9.59967C251.861 9.9219 251.466 10.083 251 10.083ZM254 7.41634C253.533 7.41634 253.139 7.25523 252.816 6.93301C252.494 6.61079 252.333 6.21634 252.333 5.74967C252.333 5.28301 252.494 4.88856 252.816 4.56634C253.139 4.24412 253.533 4.08301 254 4.08301C254.466 4.08301 254.861 4.24412 255.183 4.56634C255.505 4.88856 255.666 5.28301 255.666 5.74967C255.666 6.21634 255.505 6.61079 255.183 6.93301C254.861 7.25523 254.466 7.41634 254 7.41634ZM258 7.41634C257.533 7.41634 257.139 7.25523 256.816 6.93301C256.494 6.61079 256.333 6.21634 256.333 5.74967C256.333 5.28301 256.494 4.88856 256.816 4.56634C257.139 4.24412 257.533 4.08301 258 4.08301C258.466 4.08301 258.861 4.24412 259.183 4.56634C259.505 4.88856 259.666 5.28301 259.666 5.74967C259.666 6.21634 259.505 6.61079 259.183 6.93301C258.861 7.25523 258.466 7.41634 258 7.41634ZM261 10.083C260.533 10.083 260.139 9.9219 259.816 9.59967C259.494 9.27745 259.333 8.88301 259.333 8.41634C259.333 7.94967 259.494 7.55523 259.816 7.23301C260.139 6.91079 260.533 6.74967 261 6.74967C261.466 6.74967 261.861 6.91079 262.183 7.23301C262.505 7.55523 262.666 7.94967 262.666 8.41634C262.666 8.88301 262.505 9.27745 262.183 9.59967C261.861 9.9219 261.466 10.083 261 10.083ZM252.433 16.7497C251.933 16.7497 251.513 16.5579 251.174 16.1743C250.835 15.7908 250.666 15.3383 250.666 14.817C250.666 14.2392 250.864 13.7337 251.258 13.3003C251.653 12.867 252.045 12.4392 252.433 12.017C252.755 11.6726 253.033 11.2977 253.266 10.8923C253.5 10.487 253.777 10.1063 254.1 9.75034C254.344 9.46145 254.627 9.22256 254.95 9.03367C255.272 8.84478 255.622 8.75012 256 8.74967C256.377 8.74967 256.727 8.83856 257.05 9.01634C257.372 9.19412 257.655 9.42745 257.9 9.71634C258.211 10.0719 258.486 10.4552 258.725 10.8663C258.964 11.2775 259.245 11.6608 259.566 12.0163C259.955 12.4386 260.347 12.8663 260.741 13.2997C261.135 13.733 261.333 14.2386 261.333 14.8163C261.333 15.3386 261.163 15.7915 260.824 16.175C260.485 16.5586 260.066 16.7501 259.566 16.7497C258.966 16.7497 258.372 16.6997 257.783 16.5997C257.194 16.4997 256.6 16.4497 256 16.4497C255.4 16.4497 254.805 16.4997 254.216 16.5997C253.627 16.6997 253.033 16.7497 252.433 16.7497Z" fill="#5A2828"/>
<line x1="184" y1="13.5" x2="252" y2="13.5" stroke="#5A2828"/>
<line x1="12" y1="12.5" x2="74" y2="12.5" stroke="#5A2828"/>
<g clip-path="url(#clip0_175_850)">
<path d="M2.99967 8.08301C2.53301 8.08301 2.13856 7.9219 1.81634 7.59967C1.49412 7.27745 1.33301 6.88301 1.33301 6.41634C1.33301 5.94967 1.49412 5.55523 1.81634 5.23301C2.13856 4.91079 2.53301 4.74967 2.99967 4.74967C3.46634 4.74967 3.86079 4.91079 4.18301 5.23301C4.50523 5.55523 4.66634 5.94967 4.66634 6.41634C4.66634 6.88301 4.50523 7.27745 4.18301 7.59967C3.86079 7.9219 3.46634 8.08301 2.99967 8.08301ZM5.99967 5.41634C5.53301 5.41634 5.13856 5.25523 4.81634 4.93301C4.49412 4.61079 4.33301 4.21634 4.33301 3.74967C4.33301 3.28301 4.49412 2.88856 4.81634 2.56634C5.13856 2.24412 5.53301 2.08301 5.99967 2.08301C6.46634 2.08301 6.86079 2.24412 7.18301 2.56634C7.50523 2.88856 7.66634 3.28301 7.66634 3.74967C7.66634 4.21634 7.50523 4.61079 7.18301 4.93301C6.86079 5.25523 6.46634 5.41634 5.99967 5.41634ZM9.99967 5.41634C9.53301 5.41634 9.13856 5.25523 8.81634 4.93301C8.49412 4.61079 8.33301 4.21634 8.33301 3.74967C8.33301 3.28301 8.49412 2.88856 8.81634 2.56634C9.13856 2.24412 9.53301 2.08301 9.99967 2.08301C10.4663 2.08301 10.8608 2.24412 11.183 2.56634C11.5052 2.88856 11.6663 3.28301 11.6663 3.74967C11.6663 4.21634 11.5052 4.61079 11.183 4.93301C10.8608 5.25523 10.4663 5.41634 9.99967 5.41634ZM12.9997 8.08301C12.533 8.08301 12.1386 7.9219 11.8163 7.59967C11.4941 7.27745 11.333 6.88301 11.333 6.41634C11.333 5.94967 11.4941 5.55523 11.8163 5.23301C12.1386 4.91079 12.533 4.74967 12.9997 4.74967C13.4663 4.74967 13.8608 4.91079 14.183 5.23301C14.5052 5.55523 14.6663 5.94967 14.6663 6.41634C14.6663 6.88301 14.5052 7.27745 14.183 7.59967C13.8608 7.9219 13.4663 8.08301 12.9997 8.08301ZM4.43301 14.7497C3.93301 14.7497 3.51345 14.5579 3.17434 14.1743C2.83523 13.7908 2.6659 13.3383 2.66634 12.817C2.66634 12.2392 2.86367 11.7337 3.25834 11.3003C3.65301 10.867 4.04456 10.4392 4.43301 10.017C4.75523 9.67256 5.03301 9.29767 5.26634 8.89234C5.49967 8.48701 5.77745 8.10634 6.09967 7.75034C6.34412 7.46145 6.62745 7.22256 6.94967 7.03367C7.2719 6.84478 7.6219 6.75012 7.99967 6.74967C8.37745 6.74967 8.72745 6.83856 9.04967 7.01634C9.3719 7.19412 9.65523 7.42745 9.89968 7.71634C10.2108 8.0719 10.4859 8.45523 10.725 8.86634C10.9641 9.27745 11.2446 9.66078 11.5663 10.0163C11.9552 10.4386 12.3468 10.8663 12.741 11.2997C13.1352 11.733 13.3326 12.2386 13.333 12.8163C13.333 13.3386 13.1635 13.7915 12.8243 14.175C12.4852 14.5586 12.0659 14.7501 11.5663 14.7497C10.9663 14.7497 10.3719 14.6997 9.78301 14.5997C9.19412 14.4997 8.59967 14.4497 7.99967 14.4497C7.39967 14.4497 6.80523 14.4997 6.21634 14.5997C5.62745 14.6997 5.03301 14.7497 4.43301 14.7497Z" fill="#5A2828"/>
<rect x="14" y="13" width="67" height="2" fill="#D9D9D9"/>
</g>
<defs>
<clipPath id="clip0_175_850">
<rect width="16" height="16" fill="white"/>
</clipPath>
</defs>
</svg>
